<svg xmlns="http://www.w3.org/2000/svg" xmlns:xlink="http://www.w3.org/1999/xlink" width="230" zoomAndPan="magnify" viewBox="0 0 172.5 37.5" height="50" preserveAspectRatio="xMidYMid meet" version="1.0"><defs><g/><clipPath id="c982f0e57d"><path d="M 1 0.0273438 L 23.675781 0.0273438 L 23.675781 29.867188 L 1 29.867188 Z M 1 0.0273438 " clip-rule="nonzero"/></clipPath><clipPath id="5d9e89f527"><path d="M 5.980469 4.730469 L 18.753906 4.730469 L 18.753906 17.503906 L 5.980469 17.503906 Z M 5.980469 4.730469 " clip-rule="nonzero"/></clipPath><clipPath id="85e0b6ece9"><path d="M 12.367188 4.730469 C 8.839844 4.730469 5.980469 7.589844 5.980469 11.117188 C 5.980469 14.644531 8.839844 17.503906 12.367188 17.503906 C 15.894531 17.503906 18.753906 14.644531 18.753906 11.117188 C 18.753906 7.589844 15.894531 4.730469 12.367188 4.730469 Z M 12.367188 4.730469 " clip-rule="nonzero"/></clipPath><clipPath id="3268f1b738"><path d="M 0.980469 0.730469 L 13.753906 0.730469 L 13.753906 13.503906 L 0.980469 13.503906 Z M 0.980469 0.730469 " clip-rule="nonzero"/></clipPath><clipPath id="30c901c232"><path d="M 7.367188 0.730469 C 3.839844 0.730469 0.980469 3.589844 0.980469 7.117188 C 0.980469 10.644531 3.839844 13.503906 7.367188 13.503906 C 10.894531 13.503906 13.753906 10.644531 13.753906 7.117188 C 13.753906 3.589844 10.894531 0.730469 7.367188 0.730469 Z M 7.367188 0.730469 " clip-rule="nonzero"/></clipPath><clipPath id="90cc371b5c"><rect x="0" width="14" y="0" height="14"/></clipPath><clipPath id="d68e3ac13b"><path d="M 9.035156 7.167969 L 15.730469 7.167969 L 15.730469 15.535156 L 9.035156 15.535156 Z M 9.035156 7.167969 " clip-rule="nonzero"/></clipPath><clipPath id="97be776f16"><rect x="0" width="24" y="0" height="30"/></clipPath><clipPath id="d51a1a2a6c"><rect x="0" width="132" y="0" height="16"/></clipPath></defs><g transform="matrix(1, 0, 0, 1, 8, 4)"><g clip-path="url(#97be776f16)"><g clip-path="url(#c982f0e57d)"><path fill="#f47225" d="M 2.707031 16.398438 L 2.738281 16.445312 L 11.972656 29.570312 C 12.019531 29.632812 12.082031 29.683594 12.152344 29.71875 C 12.222656 29.753906 12.296875 29.769531 12.378906 29.769531 C 12.457031 29.769531 12.53125 29.753906 12.601562 29.71875 C 12.671875 29.683594 12.734375 29.632812 12.78125 29.570312 L 21.984375 16.445312 L 22.015625 16.398438 C 22.246094 15.980469 22.449219 15.550781 22.625 15.105469 C 22.796875 14.664062 22.945312 14.207031 23.058594 13.746094 C 23.175781 13.28125 23.261719 12.8125 23.316406 12.339844 C 23.371094 11.863281 23.394531 11.390625 23.386719 10.910156 C 23.382812 10.433594 23.34375 9.960938 23.273438 9.488281 C 23.207031 9.015625 23.109375 8.546875 22.980469 8.089844 C 22.851562 7.628906 22.691406 7.179688 22.503906 6.738281 C 22.316406 6.300781 22.101562 5.875 21.859375 5.464844 C 21.617188 5.054688 21.347656 4.660156 21.054688 4.28125 C 20.761719 3.90625 20.445312 3.550781 20.105469 3.214844 C 19.765625 2.878906 19.402344 2.570312 19.023438 2.28125 C 18.640625 1.992188 18.246094 1.730469 17.832031 1.492188 C 17.414062 1.253906 16.988281 1.046875 16.546875 0.867188 C 16.105469 0.683594 15.652344 0.53125 15.191406 0.410156 C 14.730469 0.289062 14.261719 0.195312 13.789062 0.132812 C 13.316406 0.0703125 12.839844 0.0390625 12.363281 0.0390625 C 11.882812 0.0390625 11.410156 0.0703125 10.933594 0.132812 C 10.460938 0.195312 9.996094 0.289062 9.53125 0.410156 C 9.070312 0.53125 8.621094 0.683594 8.179688 0.867188 C 7.734375 1.046875 7.308594 1.253906 6.894531 1.492188 C 6.476562 1.730469 6.082031 1.992188 5.699219 2.28125 C 5.320312 2.570312 4.960938 2.878906 4.621094 3.214844 C 4.28125 3.550781 3.960938 3.90625 3.667969 4.28125 C 3.375 4.660156 3.105469 5.054688 2.863281 5.464844 C 2.621094 5.875 2.40625 6.300781 2.21875 6.738281 C 2.03125 7.179688 1.875 7.628906 1.746094 8.089844 C 1.617188 8.546875 1.515625 9.015625 1.449219 9.488281 C 1.378906 9.960938 1.34375 10.433594 1.335938 10.910156 C 1.328125 11.390625 1.351562 11.863281 1.40625 12.339844 C 1.460938 12.8125 1.546875 13.28125 1.664062 13.746094 C 1.78125 14.207031 1.925781 14.664062 2.101562 15.105469 C 2.273438 15.550781 2.476562 15.980469 2.707031 16.398438 Z M 12.363281 6.460938 C 12.664062 6.460938 12.964844 6.488281 13.261719 6.546875 C 13.558594 6.609375 13.847656 6.695312 14.128906 6.8125 C 14.410156 6.925781 14.675781 7.070312 14.925781 7.238281 C 15.179688 7.40625 15.410156 7.597656 15.625 7.8125 C 15.839844 8.027344 16.03125 8.257812 16.199219 8.511719 C 16.367188 8.761719 16.511719 9.03125 16.625 9.308594 C 16.742188 9.589844 16.832031 9.878906 16.890625 10.175781 C 16.949219 10.472656 16.976562 10.773438 16.976562 11.078125 C 16.976562 11.378906 16.949219 11.679688 16.890625 11.976562 C 16.832031 12.273438 16.742188 12.5625 16.625 12.84375 C 16.511719 13.121094 16.367188 13.390625 16.199219 13.640625 C 16.03125 13.894531 15.839844 14.125 15.625 14.339844 C 15.410156 14.554688 15.179688 14.746094 14.925781 14.914062 C 14.675781 15.082031 14.410156 15.226562 14.128906 15.339844 C 13.847656 15.457031 13.558594 15.542969 13.261719 15.605469 C 12.964844 15.664062 12.664062 15.691406 12.363281 15.691406 C 12.058594 15.691406 11.757812 15.664062 11.460938 15.605469 C 11.164062 15.542969 10.875 15.457031 10.59375 15.339844 C 10.316406 15.226562 10.050781 15.082031 9.796875 14.914062 C 9.546875 14.746094 9.3125 14.554688 9.097656 14.339844 C 8.882812 14.125 8.691406 13.894531 8.523438 13.640625 C 8.355469 13.390625 8.210938 13.121094 8.097656 12.84375 C 7.980469 12.5625 7.894531 12.273438 7.835938 11.976562 C 7.773438 11.679688 7.746094 11.378906 7.746094 11.078125 C 7.746094 10.773438 7.773438 10.472656 7.835938 10.175781 C 7.894531 9.878906 7.980469 9.589844 8.097656 9.308594 C 8.210938 9.03125 8.355469 8.761719 8.523438 8.511719 C 8.691406 8.257812 8.882812 8.027344 9.097656 7.8125 C 9.3125 7.597656 9.546875 7.40625 9.796875 7.238281 C 10.050781 7.070312 10.316406 6.925781 10.59375 6.8125 C 10.875 6.695312 11.164062 6.609375 11.460938 6.546875 C 11.757812 6.488281 12.058594 6.460938 12.363281 6.460938 Z M 12.363281 6.460938 " fill-opacity="1" fill-rule="nonzero"/></g><g clip-path="url(#5d9e89f527)"><g clip-path="url(#85e0b6ece9)"><g transform="matrix(1, 0, 0, 1, 5, 4)"><g clip-path="url(#90cc371b5c)"><g clip-path="url(#3268f1b738)"><g clip-path="url(#30c901c232)"><path fill="#ffffff" d="M 0.980469 0.730469 L 13.753906 0.730469 L 13.753906 13.503906 L 0.980469 13.503906 Z M 0.980469 0.730469 " fill-opacity="1" fill-rule="nonzero"/></g></g></g></g></g></g><g clip-path="url(#d68e3ac13b)"><path fill="#f47225" d="M 15.6875 15.105469 C 15.6875 12.816406 14.199219 10.960938 12.363281 10.960938 C 10.527344 10.960938 9.035156 12.816406 9.035156 15.105469 C 9.035156 15.460938 10.527344 15.753906 12.363281 15.753906 C 14.199219 15.753906 15.6875 15.460938 15.6875 15.105469 Z M 12.363281 7.171875 C 13.363281 7.171875 14.175781 7.984375 14.175781 8.984375 C 14.175781 9.984375 13.363281 10.796875 12.363281 10.796875 C 11.363281 10.796875 10.550781 9.984375 10.550781 8.984375 C 10.550781 7.984375 11.363281 7.171875 12.363281 7.171875 Z M 12.363281 7.171875 " fill-opacity="1" fill-rule="evenodd"/></g></g></g><g transform="matrix(1, 0, 0, 1, 35, 8)"><g clip-path="url(#d51a1a2a6c)"><g fill="#f47225" fill-opacity="1"><g transform="translate(1.122207, 11.839354)"><g><path d="M 3.796875 2.328125 C 2.242188 1.890625 1.46875 0.882812 1.46875 -0.6875 L 1.46875 -1.96875 C 1.46875 -2.882812 1.082031 -3.34375 0.3125 -3.34375 L 0.3125 -4.6875 C 1.0625 -4.6875 1.445312 -5.113281 1.46875 -5.96875 L 1.46875 -7.34375 C 1.46875 -8.144531 1.660156 -8.789062 2.046875 -9.28125 C 2.441406 -9.78125 3.023438 -10.140625 3.796875 -10.359375 L 4.15625 -9.3125 C 3.832031 -9.1875 3.585938 -8.972656 3.421875 -8.671875 C 3.253906 -8.378906 3.164062 -7.96875 3.15625 -7.4375 L 3.15625 -6.0625 C 3.15625 -5.09375 2.765625 -4.410156 1.984375 -4.015625 C 2.765625 -3.617188 3.15625 -2.929688 3.15625 -1.953125 L 3.15625 -0.578125 C 3.175781 0.441406 3.507812 1.0625 4.15625 1.28125 Z M 3.796875 2.328125 "/></g></g></g><g fill="#f47225" fill-opacity="1"><g transform="translate(5.5072, 11.839354)"><g><path d="M 8.25 -3.140625 C 8.175781 -2.128906 7.800781 -1.332031 7.125 -0.75 C 6.445312 -0.164062 5.554688 0.125 4.453125 0.125 C 3.242188 0.125 2.289062 -0.28125 1.59375 -1.09375 C 0.90625 -1.90625 0.5625 -3.023438 0.5625 -4.453125 L 0.5625 -5.03125 C 0.5625 -5.9375 0.71875 -6.734375 1.03125 -7.421875 C 1.351562 -8.117188 1.8125 -8.648438 2.40625 -9.015625 C 3 -9.390625 3.691406 -9.578125 4.484375 -9.578125 C 5.566406 -9.578125 6.441406 -9.285156 7.109375 -8.703125 C 7.773438 -8.117188 8.160156 -7.296875 8.265625 -6.234375 L 6.328125 -6.234375 C 6.273438 -6.847656 6.101562 -7.289062 5.8125 -7.5625 C 5.519531 -7.832031 5.078125 -7.96875 4.484375 -7.96875 C 3.835938 -7.96875 3.351562 -7.734375 3.03125 -7.265625 C 2.707031 -6.804688 2.539062 -6.085938 2.53125 -5.109375 L 2.53125 -4.40625 C 2.53125 -3.382812 2.679688 -2.632812 2.984375 -2.15625 C 3.296875 -1.6875 3.785156 -1.453125 4.453125 -1.453125 C 5.054688 -1.453125 5.503906 -1.585938 5.796875 -1.859375 C 6.097656 -2.140625 6.269531 -2.566406 6.3125 -3.140625 Z M 8.25 -3.140625 "/></g></g></g><g fill="#f47225" fill-opacity="1"><g transform="translate(14.199345, 11.839354)"><g><path d="M 7.984375 -9.4375 L 7.984375 -3.21875 C 7.984375 -2.1875 7.660156 -1.367188 7.015625 -0.765625 C 6.367188 -0.171875 5.488281 0.125 4.375 0.125 C 3.269531 0.125 2.390625 -0.164062 1.734375 -0.75 C 1.085938 -1.332031 0.757812 -2.132812 0.75 -3.15625 L 0.75 -9.4375 L 2.703125 -9.4375 L 2.703125 -3.203125 C 2.703125 -2.585938 2.847656 -2.140625 3.140625 -1.859375 C 3.441406 -1.578125 3.851562 -1.4375 4.375 -1.4375 C 5.46875 -1.4375 6.019531 -2.007812 6.03125 -3.15625 L 6.03125 -9.4375 Z M 7.984375 -9.4375 "/></g></g></g><g fill="#f47225" fill-opacity="1"><g transform="translate(22.943384, 11.839354)"><g><path d="M 5.734375 -2.484375 C 5.734375 -2.847656 5.601562 -3.128906 5.34375 -3.328125 C 5.09375 -3.523438 4.628906 -3.734375 3.953125 -3.953125 C 3.273438 -4.171875 2.738281 -4.382812 2.34375 -4.59375 C 1.269531 -5.164062 0.734375 -5.945312 0.734375 -6.9375 C 0.734375 -7.445312 0.878906 -7.898438 1.171875 -8.296875 C 1.460938 -8.691406 1.875 -9.003906 2.40625 -9.234375 C 2.945312 -9.460938 3.550781 -9.578125 4.21875 -9.578125 C 4.894531 -9.578125 5.492188 -9.453125 6.015625 -9.203125 C 6.546875 -8.960938 6.957031 -8.617188 7.25 -8.171875 C 7.539062 -7.722656 7.6875 -7.21875 7.6875 -6.65625 L 5.75 -6.65625 C 5.75 -7.082031 5.609375 -7.414062 5.328125 -7.65625 C 5.054688 -7.894531 4.675781 -8.015625 4.1875 -8.015625 C 3.707031 -8.015625 3.335938 -7.914062 3.078125 -7.71875 C 2.816406 -7.519531 2.6875 -7.253906 2.6875 -6.921875 C 2.6875 -6.617188 2.835938 -6.363281 3.140625 -6.15625 C 3.453125 -5.945312 3.910156 -5.753906 4.515625 -5.578125 C 5.617188 -5.242188 6.421875 -4.828125 6.921875 -4.328125 C 7.429688 -3.835938 7.6875 -3.222656 7.6875 -2.484375 C 7.6875 -1.671875 7.378906 -1.03125 6.765625 -0.5625 C 6.148438 -0.101562 5.316406 0.125 4.265625 0.125 C 3.535156 0.125 2.875 -0.00390625 2.28125 -0.265625 C 1.6875 -0.535156 1.234375 -0.898438 0.921875 -1.359375 C 0.609375 -1.828125 0.453125 -2.363281 0.453125 -2.96875 L 2.40625 -2.96875 C 2.40625 -1.925781 3.023438 -1.40625 4.265625 -1.40625 C 4.734375 -1.40625 5.09375 -1.5 5.34375 -1.6875 C 5.601562 -1.875 5.734375 -2.140625 5.734375 -2.484375 Z M 5.734375 -2.484375 "/></g></g></g><g fill="#f47225" fill-opacity="1"><g transform="translate(31.110115, 11.839354)"><g><path d="M 7.953125 -7.859375 L 5.0625 -7.859375 L 5.0625 0 L 3.109375 0 L 3.109375 -7.859375 L 0.265625 -7.859375 L 0.265625 -9.4375 L 7.953125 -9.4375 Z M 7.953125 -7.859375 "/></g></g></g><g fill="#f47225" fill-opacity="1"><g transform="translate(39.147089, 11.839354)"><g><path d="M 8.59375 -4.5 C 8.59375 -3.570312 8.425781 -2.757812 8.09375 -2.0625 C 7.769531 -1.363281 7.300781 -0.820312 6.6875 -0.4375 C 6.082031 -0.0625 5.382812 0.125 4.59375 0.125 C 3.8125 0.125 3.113281 -0.0625 2.5 -0.4375 C 1.882812 -0.8125 1.40625 -1.347656 1.0625 -2.046875 C 0.726562 -2.742188 0.5625 -3.546875 0.5625 -4.453125 L 0.5625 -4.921875 C 0.5625 -5.847656 0.726562 -6.664062 1.0625 -7.375 C 1.394531 -8.082031 1.863281 -8.625 2.46875 -9 C 3.082031 -9.382812 3.785156 -9.578125 4.578125 -9.578125 C 5.367188 -9.578125 6.066406 -9.382812 6.671875 -9 C 7.285156 -8.625 7.757812 -8.082031 8.09375 -7.375 C 8.425781 -6.664062 8.59375 -5.847656 8.59375 -4.921875 Z M 6.625 -4.9375 C 6.625 -5.925781 6.445312 -6.675781 6.09375 -7.1875 C 5.738281 -7.707031 5.234375 -7.96875 4.578125 -7.96875 C 3.921875 -7.96875 3.414062 -7.710938 3.0625 -7.203125 C 2.707031 -6.691406 2.53125 -5.945312 2.53125 -4.96875 L 2.53125 -4.5 C 2.53125 -3.539062 2.707031 -2.796875 3.0625 -2.265625 C 3.414062 -1.734375 3.925781 -1.46875 4.59375 -1.46875 C 5.25 -1.46875 5.75 -1.722656 6.09375 -2.234375 C 6.445312 -2.742188 6.625 -3.488281 6.625 -4.46875 Z M 6.625 -4.9375 "/></g></g></g><g fill="#f47225" fill-opacity="1"><g transform="translate(48.319248, 11.839354)"><g><path d="M 3.390625 -9.4375 L 5.8125 -2.59375 L 8.21875 -9.4375 L 10.78125 -9.4375 L 10.78125 0 L 8.828125 0 L 8.828125 -2.578125 L 9.015625 -7.03125 L 6.46875 0 L 5.140625 0 L 2.59375 -7.03125 L 2.78125 -2.578125 L 2.78125 0 L 0.84375 0 L 0.84375 -9.4375 Z M 3.390625 -9.4375 "/></g></g></g><g fill="#f47225" fill-opacity="1"><g transform="translate(59.956345, 11.839354)"><g><path d="M 6.53125 -4.09375 L 2.78125 -4.09375 L 2.78125 -1.5625 L 7.171875 -1.5625 L 7.171875 0 L 0.84375 0 L 0.84375 -9.4375 L 7.15625 -9.4375 L 7.15625 -7.859375 L 2.78125 -7.859375 L 2.78125 -5.609375 L 6.53125 -5.609375 Z M 6.53125 -4.09375 "/></g></g></g><g fill="#f47225" fill-opacity="1"><g transform="translate(67.428995, 11.839354)"><g><path d="M 4.34375 -3.453125 L 2.78125 -3.453125 L 2.78125 0 L 0.84375 0 L 0.84375 -9.4375 L 4.34375 -9.4375 C 5.46875 -9.4375 6.332031 -9.1875 6.9375 -8.6875 C 7.539062 -8.195312 7.84375 -7.5 7.84375 -6.59375 C 7.84375 -5.945312 7.703125 -5.40625 7.421875 -4.96875 C 7.140625 -4.539062 6.71875 -4.203125 6.15625 -3.953125 L 8.203125 -0.09375 L 8.203125 0 L 6.109375 0 Z M 2.78125 -5.03125 L 4.359375 -5.03125 C 4.847656 -5.03125 5.222656 -5.15625 5.484375 -5.40625 C 5.753906 -5.65625 5.890625 -6 5.890625 -6.4375 C 5.890625 -6.875 5.765625 -7.21875 5.515625 -7.46875 C 5.265625 -7.726562 4.875 -7.859375 4.34375 -7.859375 L 2.78125 -7.859375 Z M 2.78125 -5.03125 "/></g></g></g><g fill="#f47225" fill-opacity="1"><g transform="translate(75.907087, 11.839354)"><g><path d="M 0.21875 1.28125 C 0.875 1.050781 1.210938 0.425781 1.234375 -0.59375 L 1.234375 -1.96875 C 1.234375 -2.945312 1.628906 -3.625 2.421875 -4 C 1.628906 -4.382812 1.234375 -5.078125 1.234375 -6.078125 L 1.234375 -7.4375 C 1.210938 -8.4375 0.875 -9.0625 0.21875 -9.3125 L 0.578125 -10.359375 C 1.359375 -10.140625 1.941406 -9.785156 2.328125 -9.296875 C 2.710938 -8.804688 2.910156 -8.160156 2.921875 -7.359375 L 2.921875 -5.96875 C 2.929688 -5.113281 3.316406 -4.6875 4.078125 -4.6875 L 4.078125 -3.34375 C 3.304688 -3.34375 2.921875 -2.890625 2.921875 -1.984375 L 2.921875 -0.578125 C 2.878906 0.929688 2.097656 1.898438 0.578125 2.328125 Z M 0.21875 1.28125 "/></g></g></g><g fill="#000000" fill-opacity="1"><g transform="translate(80.303403, 11.839354)"><g><path d="M 8.515625 0 L 6.578125 0 L 2.78125 -6.21875 L 2.78125 0 L 0.84375 0 L 0.84375 -9.4375 L 2.78125 -9.4375 L 6.578125 -3.21875 L 6.578125 -9.4375 L 8.515625 -9.4375 Z M 8.515625 0 "/></g></g></g><g fill="#000000" fill-opacity="1"><g transform="translate(89.683137, 11.839354)"><g><path d="M 3.953125 0.125 C 2.921875 0.125 2.082031 -0.1875 1.4375 -0.8125 C 0.789062 -1.445312 0.46875 -2.289062 0.46875 -3.34375 L 0.46875 -3.515625 C 0.46875 -4.222656 0.601562 -4.851562 0.875 -5.40625 C 1.144531 -5.96875 1.53125 -6.394531 2.03125 -6.6875 C 2.53125 -6.988281 3.097656 -7.140625 3.734375 -7.140625 C 4.703125 -7.140625 5.457031 -6.835938 6 -6.234375 C 6.550781 -5.628906 6.828125 -4.769531 6.828125 -3.65625 L 6.828125 -2.90625 L 2.359375 -2.90625 C 2.421875 -2.445312 2.601562 -2.078125 2.90625 -1.796875 C 3.21875 -1.515625 3.609375 -1.375 4.078125 -1.375 C 4.796875 -1.375 5.359375 -1.640625 5.765625 -2.171875 L 6.6875 -1.140625 C 6.40625 -0.734375 6.023438 -0.421875 5.546875 -0.203125 C 5.066406 0.015625 4.535156 0.125 3.953125 0.125 Z M 3.734375 -5.625 C 3.359375 -5.625 3.054688 -5.5 2.828125 -5.25 C 2.597656 -5 2.453125 -4.640625 2.390625 -4.171875 L 5 -4.171875 L 5 -4.328125 C 4.988281 -4.742188 4.875 -5.0625 4.65625 -5.28125 C 4.4375 -5.507812 4.128906 -5.625 3.734375 -5.625 Z M 3.734375 -5.625 "/></g></g></g><g fill="#000000" fill-opacity="1"><g transform="translate(96.863893, 11.839354)"><g><path d="M 4.78125 0 C 4.695312 -0.164062 4.632812 -0.375 4.59375 -0.625 C 4.144531 -0.125 3.554688 0.125 2.828125 0.125 C 2.140625 0.125 1.566406 -0.0703125 1.109375 -0.46875 C 0.660156 -0.863281 0.4375 -1.363281 0.4375 -1.96875 C 0.4375 -2.71875 0.710938 -3.289062 1.265625 -3.6875 C 1.816406 -4.082031 2.613281 -4.28125 3.65625 -4.28125 L 4.515625 -4.28125 L 4.515625 -4.6875 C 4.515625 -5.007812 4.429688 -5.269531 4.265625 -5.46875 C 4.097656 -5.664062 3.835938 -5.765625 3.484375 -5.765625 C 3.171875 -5.765625 2.921875 -5.6875 2.734375 -5.53125 C 2.554688 -5.382812 2.46875 -5.175781 2.46875 -4.90625 L 0.59375 -4.90625 C 0.59375 -5.3125 0.71875 -5.6875 0.96875 -6.03125 C 1.21875 -6.382812 1.570312 -6.65625 2.03125 -6.84375 C 2.488281 -7.039062 3.003906 -7.140625 3.578125 -7.140625 C 4.441406 -7.140625 5.128906 -6.921875 5.640625 -6.484375 C 6.148438 -6.054688 6.40625 -5.445312 6.40625 -4.65625 L 6.40625 -1.625 C 6.40625 -0.957031 6.492188 -0.453125 6.671875 -0.109375 L 6.671875 0 Z M 3.234375 -1.296875 C 3.515625 -1.296875 3.769531 -1.359375 4 -1.484375 C 4.226562 -1.609375 4.398438 -1.773438 4.515625 -1.984375 L 4.515625 -3.1875 L 3.8125 -3.1875 C 2.875 -3.1875 2.378906 -2.863281 2.328125 -2.21875 L 2.3125 -2.109375 C 2.3125 -1.867188 2.394531 -1.671875 2.5625 -1.515625 C 2.726562 -1.367188 2.953125 -1.296875 3.234375 -1.296875 Z M 3.234375 -1.296875 "/></g></g></g><g fill="#000000" fill-opacity="1"><g transform="translate(103.986263, 11.839354)"><g><path d="M 4.65625 -5.265625 C 4.40625 -5.296875 4.179688 -5.3125 3.984375 -5.3125 C 3.273438 -5.3125 2.8125 -5.070312 2.59375 -4.59375 L 2.59375 0 L 0.71875 0 L 0.71875 -7.015625 L 2.484375 -7.015625 L 2.546875 -6.1875 C 2.921875 -6.820312 3.441406 -7.140625 4.109375 -7.140625 C 4.316406 -7.140625 4.507812 -7.113281 4.6875 -7.0625 Z M 4.65625 -5.265625 "/></g></g></g><g fill="#000000" fill-opacity="1"><g transform="translate(108.831815, 11.839354)"><g><path d="M 3.390625 -9.4375 L 5.8125 -2.59375 L 8.21875 -9.4375 L 10.78125 -9.4375 L 10.78125 0 L 8.828125 0 L 8.828125 -2.578125 L 9.015625 -7.03125 L 6.46875 0 L 5.140625 0 L 2.59375 -7.03125 L 2.78125 -2.578125 L 2.78125 0 L 0.84375 0 L 0.84375 -9.4375 Z M 3.390625 -9.4375 "/></g></g></g><g fill="#000000" fill-opacity="1"><g transform="translate(120.468912, 11.839354)"><g><path d="M 3.953125 0.125 C 2.921875 0.125 2.082031 -0.1875 1.4375 -0.8125 C 0.789062 -1.445312 0.46875 -2.289062 0.46875 -3.34375 L 0.46875 -3.515625 C 0.46875 -4.222656 0.601562 -4.851562 0.875 -5.40625 C 1.144531 -5.96875 1.53125 -6.394531 2.03125 -6.6875 C 2.53125 -6.988281 3.097656 -7.140625 3.734375 -7.140625 C 4.703125 -7.140625 5.457031 -6.835938 6 -6.234375 C 6.550781 -5.628906 6.828125 -4.769531 6.828125 -3.65625 L 6.828125 -2.90625 L 2.359375 -2.90625 C 2.421875 -2.445312 2.601562 -2.078125 2.90625 -1.796875 C 3.21875 -1.515625 3.609375 -1.375 4.078125 -1.375 C 4.796875 -1.375 5.359375 -1.640625 5.765625 -2.171875 L 6.6875 -1.140625 C 6.40625 -0.734375 6.023438 -0.421875 5.546875 -0.203125 C 5.066406 0.015625 4.535156 0.125 3.953125 0.125 Z M 3.734375 -5.625 C 3.359375 -5.625 3.054688 -5.5 2.828125 -5.25 C 2.597656 -5 2.453125 -4.640625 2.390625 -4.171875 L 5 -4.171875 L 5 -4.328125 C 4.988281 -4.742188 4.875 -5.0625 4.65625 -5.28125 C 4.4375 -5.507812 4.128906 -5.625 3.734375 -5.625 Z M 3.734375 -5.625 "/></g></g></g><g fill="#000000" fill-opacity="1"><g transform="translate(127.656398, 11.839354)"><g/></g></g></g></g><g fill="#000000" fill-opacity="1"><g transform="translate(38.079768, 29.63592)"><g><path d="M 3.078125 -1.203125 L 5.03125 -6.875 L 6.03125 -6.875 L 3.484375 0 L 2.671875 0 L 0.125 -6.875 L 1.125 -6.875 Z M 3.078125 -1.203125 "/></g></g></g><g fill="#000000" fill-opacity="1"><g transform="translate(44.015807, 29.63592)"><g><path d="M 2.78125 0.09375 C 2.09375 0.09375 1.53125 -0.128906 1.09375 -0.578125 C 0.65625 -1.035156 0.4375 -1.644531 0.4375 -2.40625 L 0.4375 -2.578125 C 0.4375 -3.078125 0.53125 -3.523438 0.71875 -3.921875 C 0.914062 -4.328125 1.1875 -4.640625 1.53125 -4.859375 C 1.882812 -5.085938 2.265625 -5.203125 2.671875 -5.203125 C 3.335938 -5.203125 3.851562 -4.984375 4.21875 -4.546875 C 4.59375 -4.109375 4.78125 -3.484375 4.78125 -2.671875 L 4.78125 -2.296875 L 1.3125 -2.296875 C 1.320312 -1.796875 1.46875 -1.390625 1.75 -1.078125 C 2.03125 -0.773438 2.390625 -0.625 2.828125 -0.625 C 3.140625 -0.625 3.398438 -0.6875 3.609375 -0.8125 C 3.828125 -0.9375 4.015625 -1.101562 4.171875 -1.3125 L 4.703125 -0.890625 C 4.273438 -0.234375 3.632812 0.09375 2.78125 0.09375 Z M 2.671875 -4.484375 C 2.316406 -4.484375 2.019531 -4.351562 1.78125 -4.09375 C 1.539062 -3.84375 1.394531 -3.484375 1.34375 -3.015625 L 3.90625 -3.015625 L 3.90625 -3.09375 C 3.875 -3.53125 3.75 -3.867188 3.53125 -4.109375 C 3.320312 -4.359375 3.035156 -4.484375 2.671875 -4.484375 Z M 2.671875 -4.484375 "/></g></g></g><g fill="#000000" fill-opacity="1"><g transform="translate(49.131632, 29.63592)"><g><path d="M 3.125 -4.328125 C 3 -4.347656 2.859375 -4.359375 2.703125 -4.359375 C 2.128906 -4.359375 1.738281 -4.113281 1.53125 -3.625 L 1.53125 0 L 0.65625 0 L 0.65625 -5.109375 L 1.515625 -5.109375 L 1.53125 -4.515625 C 1.8125 -4.972656 2.21875 -5.203125 2.75 -5.203125 C 2.914062 -5.203125 3.039062 -5.179688 3.125 -5.140625 Z M 3.125 -4.328125 "/></g></g></g><g fill="#000000" fill-opacity="1"><g transform="translate(52.399161, 29.63592)"><g><path d="M 1.609375 0 L 0.734375 0 L 0.734375 -5.109375 L 1.609375 -5.109375 Z M 0.671875 -6.46875 C 0.671875 -6.601562 0.710938 -6.71875 0.796875 -6.8125 C 0.878906 -6.914062 1.003906 -6.96875 1.171875 -6.96875 C 1.347656 -6.96875 1.476562 -6.914062 1.5625 -6.8125 C 1.65625 -6.71875 1.703125 -6.597656 1.703125 -6.453125 C 1.703125 -6.316406 1.65625 -6.203125 1.5625 -6.109375 C 1.476562 -6.015625 1.347656 -5.96875 1.171875 -5.96875 C 1.003906 -5.96875 0.878906 -6.015625 0.796875 -6.109375 C 0.710938 -6.203125 0.671875 -6.320312 0.671875 -6.46875 Z M 0.671875 -6.46875 "/></g></g></g><g fill="#000000" fill-opacity="1"><g transform="translate(54.742542, 29.63592)"><g><path d="M 1.09375 0 L 1.09375 -4.4375 L 0.28125 -4.4375 L 0.28125 -5.109375 L 1.09375 -5.109375 L 1.09375 -5.640625 C 1.09375 -6.179688 1.238281 -6.601562 1.53125 -6.90625 C 1.820312 -7.207031 2.234375 -7.359375 2.765625 -7.359375 C 2.972656 -7.359375 3.175781 -7.328125 3.375 -7.265625 L 3.328125 -6.5625 C 3.179688 -6.59375 3.023438 -6.609375 2.859375 -6.609375 C 2.566406 -6.609375 2.34375 -6.523438 2.1875 -6.359375 C 2.039062 -6.191406 1.96875 -5.953125 1.96875 -5.640625 L 1.96875 -5.109375 L 3.0625 -5.109375 L 3.0625 -4.4375 L 1.96875 -4.4375 L 1.96875 0 Z M 1.09375 0 "/></g></g></g><g fill="#000000" fill-opacity="1"><g transform="translate(58.094942, 29.63592)"><g><path d="M 1.609375 0 L 0.734375 0 L 0.734375 -5.109375 L 1.609375 -5.109375 Z M 0.671875 -6.46875 C 0.671875 -6.601562 0.710938 -6.71875 0.796875 -6.8125 C 0.878906 -6.914062 1.003906 -6.96875 1.171875 -6.96875 C 1.347656 -6.96875 1.476562 -6.914062 1.5625 -6.8125 C 1.65625 -6.71875 1.703125 -6.597656 1.703125 -6.453125 C 1.703125 -6.316406 1.65625 -6.203125 1.5625 -6.109375 C 1.476562 -6.015625 1.347656 -5.96875 1.171875 -5.96875 C 1.003906 -5.96875 0.878906 -6.015625 0.796875 -6.109375 C 0.710938 -6.203125 0.671875 -6.320312 0.671875 -6.46875 Z M 0.671875 -6.46875 "/></g></g></g><g fill="#000000" fill-opacity="1"><g transform="translate(60.438323, 29.63592)"><g><path d="M 2.78125 0.09375 C 2.09375 0.09375 1.53125 -0.128906 1.09375 -0.578125 C 0.65625 -1.035156 0.4375 -1.644531 0.4375 -2.40625 L 0.4375 -2.578125 C 0.4375 -3.078125 0.53125 -3.523438 0.71875 -3.921875 C 0.914062 -4.328125 1.1875 -4.640625 1.53125 -4.859375 C 1.882812 -5.085938 2.265625 -5.203125 2.671875 -5.203125 C 3.335938 -5.203125 3.851562 -4.984375 4.21875 -4.546875 C 4.59375 -4.109375 4.78125 -3.484375 4.78125 -2.671875 L 4.78125 -2.296875 L 1.3125 -2.296875 C 1.320312 -1.796875 1.46875 -1.390625 1.75 -1.078125 C 2.03125 -0.773438 2.390625 -0.625 2.828125 -0.625 C 3.140625 -0.625 3.398438 -0.6875 3.609375 -0.8125 C 3.828125 -0.9375 4.015625 -1.101562 4.171875 -1.3125 L 4.703125 -0.890625 C 4.273438 -0.234375 3.632812 0.09375 2.78125 0.09375 Z M 2.671875 -4.484375 C 2.316406 -4.484375 2.019531 -4.351562 1.78125 -4.09375 C 1.539062 -3.84375 1.394531 -3.484375 1.34375 -3.015625 L 3.90625 -3.015625 L 3.90625 -3.09375 C 3.875 -3.53125 3.75 -3.867188 3.53125 -4.109375 C 3.320312 -4.359375 3.035156 -4.484375 2.671875 -4.484375 Z M 2.671875 -4.484375 "/></g></g></g><g fill="#000000" fill-opacity="1"><g transform="translate(65.554148, 29.63592)"><g><path d="M 0.453125 -2.59375 C 0.453125 -3.375 0.632812 -4.003906 1 -4.484375 C 1.375 -4.960938 1.863281 -5.203125 2.46875 -5.203125 C 3.0625 -5.203125 3.535156 -5 3.890625 -4.59375 L 3.890625 -7.25 L 4.765625 -7.25 L 4.765625 0 L 3.953125 0 L 3.921875 -0.546875 C 3.566406 -0.117188 3.078125 0.09375 2.453125 0.09375 C 1.859375 0.09375 1.375 -0.144531 1 -0.625 C 0.632812 -1.113281 0.453125 -1.75 0.453125 -2.53125 Z M 1.328125 -2.5 C 1.328125 -1.914062 1.445312 -1.457031 1.6875 -1.125 C 1.925781 -0.800781 2.253906 -0.640625 2.671875 -0.640625 C 3.222656 -0.640625 3.628906 -0.890625 3.890625 -1.390625 L 3.890625 -3.734375 C 3.628906 -4.222656 3.226562 -4.46875 2.6875 -4.46875 C 2.257812 -4.46875 1.925781 -4.300781 1.6875 -3.96875 C 1.445312 -3.632812 1.328125 -3.144531 1.328125 -2.5 Z M 1.328125 -2.5 "/></g></g></g><g fill="#000000" fill-opacity="1"><g transform="translate(73.390557, 29.63592)"><g><path d="M 5.875 -0.90625 C 5.644531 -0.570312 5.320312 -0.320312 4.90625 -0.15625 C 4.488281 0.0078125 4 0.09375 3.4375 0.09375 C 2.882812 0.09375 2.390625 -0.0351562 1.953125 -0.296875 C 1.515625 -0.554688 1.175781 -0.929688 0.9375 -1.421875 C 0.695312 -1.910156 0.578125 -2.472656 0.578125 -3.109375 L 0.578125 -3.703125 C 0.578125 -4.742188 0.816406 -5.546875 1.296875 -6.109375 C 1.785156 -6.679688 2.46875 -6.96875 3.34375 -6.96875 C 4.0625 -6.96875 4.640625 -6.785156 5.078125 -6.421875 C 5.515625 -6.054688 5.78125 -5.535156 5.875 -4.859375 L 4.96875 -4.859375 C 4.800781 -5.765625 4.257812 -6.21875 3.34375 -6.21875 C 2.738281 -6.21875 2.28125 -6.003906 1.96875 -5.578125 C 1.65625 -5.148438 1.492188 -4.535156 1.484375 -3.734375 L 1.484375 -3.171875 C 1.484375 -2.398438 1.660156 -1.785156 2.015625 -1.328125 C 2.367188 -0.867188 2.847656 -0.640625 3.453125 -0.640625 C 3.785156 -0.640625 4.078125 -0.675781 4.328125 -0.75 C 4.585938 -0.832031 4.800781 -0.960938 4.96875 -1.140625 L 4.96875 -2.6875 L 3.375 -2.6875 L 3.375 -3.421875 L 5.875 -3.421875 Z M 5.875 -0.90625 "/></g></g></g><g fill="#000000" fill-opacity="1"><g transform="translate(79.968045, 29.63592)"><g><path d="M 1.96875 -6.875 L 4.21875 -1.265625 L 6.46875 -6.875 L 7.640625 -6.875 L 7.640625 0 L 6.734375 0 L 6.734375 -2.671875 L 6.8125 -5.5625 L 4.5625 0 L 3.875 0 L 1.609375 -5.546875 L 1.703125 -2.671875 L 1.703125 0 L 0.796875 0 L 0.796875 -6.875 Z M 1.96875 -6.875 "/></g></g></g><g fill="#000000" fill-opacity="1"><g transform="translate(88.398538, 29.63592)"><g><path d="M 0.796875 0 L 0.796875 -6.875 L 3.046875 -6.875 C 3.796875 -6.875 4.359375 -6.71875 4.734375 -6.40625 C 5.109375 -6.101562 5.296875 -5.648438 5.296875 -5.046875 C 5.296875 -4.722656 5.203125 -4.4375 5.015625 -4.1875 C 4.835938 -3.945312 4.59375 -3.757812 4.28125 -3.625 C 4.644531 -3.519531 4.9375 -3.320312 5.15625 -3.03125 C 5.375 -2.738281 5.484375 -2.390625 5.484375 -1.984375 C 5.484375 -1.367188 5.28125 -0.882812 4.875 -0.53125 C 4.476562 -0.175781 3.914062 0 3.1875 0 Z M 1.703125 -3.21875 L 1.703125 -0.734375 L 3.203125 -0.734375 C 3.617188 -0.734375 3.945312 -0.84375 4.1875 -1.0625 C 4.4375 -1.28125 4.5625 -1.582031 4.5625 -1.96875 C 4.5625 -2.800781 4.113281 -3.21875 3.21875 -3.21875 Z M 1.703125 -3.9375 L 3.078125 -3.9375 C 3.472656 -3.9375 3.785156 -4.035156 4.015625 -4.234375 C 4.253906 -4.429688 4.375 -4.703125 4.375 -5.046875 C 4.375 -5.421875 4.265625 -5.691406 4.046875 -5.859375 C 3.828125 -6.035156 3.492188 -6.125 3.046875 -6.125 L 1.703125 -6.125 Z M 1.703125 -3.9375 "/></g></g></g><g fill="#000000" fill-opacity="1"><g transform="translate(94.410221, 29.63592)"><g/></g></g><g fill="#000000" fill-opacity="1"><g transform="translate(96.800752, 29.63592)"><g><path d="M 1.703125 -0.734375 L 4.96875 -0.734375 L 4.96875 0 L 0.796875 0 L 0.796875 -6.875 L 1.703125 -6.875 Z M 1.703125 -0.734375 "/></g></g></g><g fill="#000000" fill-opacity="1"><g transform="translate(101.996727, 29.63592)"><g><path d="M 2.78125 0.09375 C 2.09375 0.09375 1.53125 -0.128906 1.09375 -0.578125 C 0.65625 -1.035156 0.4375 -1.644531 0.4375 -2.40625 L 0.4375 -2.578125 C 0.4375 -3.078125 0.53125 -3.523438 0.71875 -3.921875 C 0.914062 -4.328125 1.1875 -4.640625 1.53125 -4.859375 C 1.882812 -5.085938 2.265625 -5.203125 2.671875 -5.203125 C 3.335938 -5.203125 3.851562 -4.984375 4.21875 -4.546875 C 4.59375 -4.109375 4.78125 -3.484375 4.78125 -2.671875 L 4.78125 -2.296875 L 1.3125 -2.296875 C 1.320312 -1.796875 1.46875 -1.390625 1.75 -1.078125 C 2.03125 -0.773438 2.390625 -0.625 2.828125 -0.625 C 3.140625 -0.625 3.398438 -0.6875 3.609375 -0.8125 C 3.828125 -0.9375 4.015625 -1.101562 4.171875 -1.3125 L 4.703125 -0.890625 C 4.273438 -0.234375 3.632812 0.09375 2.78125 0.09375 Z M 2.671875 -4.484375 C 2.316406 -4.484375 2.019531 -4.351562 1.78125 -4.09375 C 1.539062 -3.84375 1.394531 -3.484375 1.34375 -3.015625 L 3.90625 -3.015625 L 3.90625 -3.09375 C 3.875 -3.53125 3.75 -3.867188 3.53125 -4.109375 C 3.320312 -4.359375 3.035156 -4.484375 2.671875 -4.484375 Z M 2.671875 -4.484375 "/></g></g></g><g fill="#000000" fill-opacity="1"><g transform="translate(107.112552, 29.63592)"><g><path d="M 3.8125 0 C 3.757812 -0.101562 3.71875 -0.28125 3.6875 -0.53125 C 3.28125 -0.113281 2.796875 0.09375 2.234375 0.09375 C 1.734375 0.09375 1.320312 -0.046875 1 -0.328125 C 0.675781 -0.617188 0.515625 -0.984375 0.515625 -1.421875 C 0.515625 -1.953125 0.71875 -2.363281 1.125 -2.65625 C 1.53125 -2.945312 2.097656 -3.09375 2.828125 -3.09375 L 3.671875 -3.09375 L 3.671875 -3.5 C 3.671875 -3.800781 3.578125 -4.039062 3.390625 -4.21875 C 3.210938 -4.40625 2.945312 -4.5 2.59375 -4.5 C 2.28125 -4.5 2.019531 -4.421875 1.8125 -4.265625 C 1.601562 -4.109375 1.5 -3.914062 1.5 -3.6875 L 0.625 -3.6875 C 0.625 -3.945312 0.710938 -4.191406 0.890625 -4.421875 C 1.066406 -4.660156 1.3125 -4.847656 1.625 -4.984375 C 1.9375 -5.128906 2.28125 -5.203125 2.65625 -5.203125 C 3.238281 -5.203125 3.695312 -5.054688 4.03125 -4.765625 C 4.363281 -4.472656 4.535156 -4.066406 4.546875 -3.546875 L 4.546875 -1.1875 C 4.546875 -0.71875 4.609375 -0.347656 4.734375 -0.078125 L 4.734375 0 Z M 2.359375 -0.671875 C 2.640625 -0.671875 2.898438 -0.738281 3.140625 -0.875 C 3.390625 -1.019531 3.566406 -1.207031 3.671875 -1.4375 L 3.671875 -2.484375 L 3 -2.484375 C 1.925781 -2.484375 1.390625 -2.171875 1.390625 -1.546875 C 1.390625 -1.265625 1.476562 -1.046875 1.65625 -0.890625 C 1.84375 -0.742188 2.078125 -0.671875 2.359375 -0.671875 Z M 2.359375 -0.671875 "/></g></g></g><g fill="#000000" fill-opacity="1"><g transform="translate(112.365108, 29.63592)"><g><path d="M 0.453125 -2.59375 C 0.453125 -3.375 0.632812 -4.003906 1 -4.484375 C 1.375 -4.960938 1.863281 -5.203125 2.46875 -5.203125 C 3.0625 -5.203125 3.535156 -5 3.890625 -4.59375 L 3.890625 -7.25 L 4.765625 -7.25 L 4.765625 0 L 3.953125 0 L 3.921875 -0.546875 C 3.566406 -0.117188 3.078125 0.09375 2.453125 0.09375 C 1.859375 0.09375 1.375 -0.144531 1 -0.625 C 0.632812 -1.113281 0.453125 -1.75 0.453125 -2.53125 Z M 1.328125 -2.5 C 1.328125 -1.914062 1.445312 -1.457031 1.6875 -1.125 C 1.925781 -0.800781 2.253906 -0.640625 2.671875 -0.640625 C 3.222656 -0.640625 3.628906 -0.890625 3.890625 -1.390625 L 3.890625 -3.734375 C 3.628906 -4.222656 3.226562 -4.46875 2.6875 -4.46875 C 2.257812 -4.46875 1.925781 -4.300781 1.6875 -3.96875 C 1.445312 -3.632812 1.328125 -3.144531 1.328125 -2.5 Z M 1.328125 -2.5 "/></g></g></g><g fill="#000000" fill-opacity="1"><g transform="translate(117.810986, 29.63592)"><g><path d="M 3.640625 -1.359375 C 3.640625 -1.585938 3.550781 -1.765625 3.375 -1.890625 C 3.195312 -2.023438 2.882812 -2.140625 2.4375 -2.234375 C 2 -2.335938 1.648438 -2.453125 1.390625 -2.578125 C 1.128906 -2.710938 0.9375 -2.867188 0.8125 -3.046875 C 0.6875 -3.234375 0.625 -3.453125 0.625 -3.703125 C 0.625 -4.117188 0.800781 -4.472656 1.15625 -4.765625 C 1.507812 -5.054688 1.960938 -5.203125 2.515625 -5.203125 C 3.085938 -5.203125 3.554688 -5.050781 3.921875 -4.75 C 4.285156 -4.457031 4.46875 -4.078125 4.46875 -3.609375 L 3.578125 -3.609375 C 3.578125 -3.847656 3.472656 -4.050781 3.265625 -4.21875 C 3.066406 -4.394531 2.816406 -4.484375 2.515625 -4.484375 C 2.191406 -4.484375 1.941406 -4.414062 1.765625 -4.28125 C 1.585938 -4.144531 1.5 -3.960938 1.5 -3.734375 C 1.5 -3.523438 1.582031 -3.363281 1.75 -3.25 C 1.914062 -3.144531 2.21875 -3.046875 2.65625 -2.953125 C 3.09375 -2.859375 3.445312 -2.742188 3.71875 -2.609375 C 3.988281 -2.472656 4.1875 -2.304688 4.3125 -2.109375 C 4.445312 -1.921875 4.515625 -1.691406 4.515625 -1.421875 C 4.515625 -0.960938 4.332031 -0.59375 3.96875 -0.3125 C 3.601562 -0.0390625 3.128906 0.09375 2.546875 0.09375 C 2.128906 0.09375 1.765625 0.0195312 1.453125 -0.125 C 1.140625 -0.269531 0.894531 -0.472656 0.71875 -0.734375 C 0.539062 -0.992188 0.453125 -1.273438 0.453125 -1.578125 L 1.328125 -1.578125 C 1.335938 -1.285156 1.453125 -1.050781 1.671875 -0.875 C 1.890625 -0.707031 2.179688 -0.625 2.546875 -0.625 C 2.867188 -0.625 3.128906 -0.6875 3.328125 -0.8125 C 3.535156 -0.945312 3.640625 -1.128906 3.640625 -1.359375 Z M 3.640625 -1.359375 "/></g></g></g><g fill="#000000" fill-opacity="1"><g transform="translate(122.790069, 29.63592)"><g/></g></g><g fill="#000000" fill-opacity="1"><g transform="translate(125.180601, 29.63592)"><g><path d="M 1.765625 0 L 0.859375 0 L 0.859375 -6.875 L 1.765625 -6.875 Z M 1.765625 0 "/></g></g></g><g fill="#000000" fill-opacity="1"><g transform="translate(127.806884, 29.63592)"><g><path d="M 1.484375 -5.109375 L 1.515625 -4.46875 C 1.898438 -4.957031 2.410156 -5.203125 3.046875 -5.203125 C 4.128906 -5.203125 4.675781 -4.59375 4.6875 -3.375 L 4.6875 0 L 3.8125 0 L 3.8125 -3.375 C 3.800781 -3.75 3.710938 -4.023438 3.546875 -4.203125 C 3.390625 -4.378906 3.132812 -4.46875 2.78125 -4.46875 C 2.5 -4.46875 2.25 -4.390625 2.03125 -4.234375 C 1.820312 -4.085938 1.65625 -3.890625 1.53125 -3.640625 L 1.53125 0 L 0.65625 0 L 0.65625 -5.109375 Z M 1.484375 -5.109375 "/></g></g></g><g fill="#000000" fill-opacity="1"><g transform="translate(133.13488, 29.63592)"><g><path d="M 3.640625 -1.359375 C 3.640625 -1.585938 3.550781 -1.765625 3.375 -1.890625 C 3.195312 -2.023438 2.882812 -2.140625 2.4375 -2.234375 C 2 -2.335938 1.648438 -2.453125 1.390625 -2.578125 C 1.128906 -2.710938 0.9375 -2.867188 0.8125 -3.046875 C 0.6875 -3.234375 0.625 -3.453125 0.625 -3.703125 C 0.625 -4.117188 0.800781 -4.472656 1.15625 -4.765625 C 1.507812 -5.054688 1.960938 -5.203125 2.515625 -5.203125 C 3.085938 -5.203125 3.554688 -5.050781 3.921875 -4.75 C 4.285156 -4.457031 4.46875 -4.078125 4.46875 -3.609375 L 3.578125 -3.609375 C 3.578125 -3.847656 3.472656 -4.050781 3.265625 -4.21875 C 3.066406 -4.394531 2.816406 -4.484375 2.515625 -4.484375 C 2.191406 -4.484375 1.941406 -4.414062 1.765625 -4.28125 C 1.585938 -4.144531 1.5 -3.960938 1.5 -3.734375 C 1.5 -3.523438 1.582031 -3.363281 1.75 -3.25 C 1.914062 -3.144531 2.21875 -3.046875 2.65625 -2.953125 C 3.09375 -2.859375 3.445312 -2.742188 3.71875 -2.609375 C 3.988281 -2.472656 4.1875 -2.304688 4.3125 -2.109375 C 4.445312 -1.921875 4.515625 -1.691406 4.515625 -1.421875 C 4.515625 -0.960938 4.332031 -0.59375 3.96875 -0.3125 C 3.601562 -0.0390625 3.128906 0.09375 2.546875 0.09375 C 2.128906 0.09375 1.765625 0.0195312 1.453125 -0.125 C 1.140625 -0.269531 0.894531 -0.472656 0.71875 -0.734375 C 0.539062 -0.992188 0.453125 -1.273438 0.453125 -1.578125 L 1.328125 -1.578125 C 1.335938 -1.285156 1.453125 -1.050781 1.671875 -0.875 C 1.890625 -0.707031 2.179688 -0.625 2.546875 -0.625 C 2.867188 -0.625 3.128906 -0.6875 3.328125 -0.8125 C 3.535156 -0.945312 3.640625 -1.128906 3.640625 -1.359375 Z M 3.640625 -1.359375 "/></g></g></g><g fill="#000000" fill-opacity="1"><g transform="translate(138.113963, 29.63592)"><g><path d="M 1.84375 -6.34375 L 1.84375 -5.109375 L 2.796875 -5.109375 L 2.796875 -4.4375 L 1.84375 -4.4375 L 1.84375 -1.265625 C 1.84375 -1.054688 1.882812 -0.898438 1.96875 -0.796875 C 2.050781 -0.703125 2.195312 -0.65625 2.40625 -0.65625 C 2.507812 -0.65625 2.648438 -0.671875 2.828125 -0.703125 L 2.828125 0 C 2.597656 0.0625 2.375 0.09375 2.15625 0.09375 C 1.757812 0.09375 1.460938 -0.0195312 1.265625 -0.25 C 1.066406 -0.488281 0.96875 -0.828125 0.96875 -1.265625 L 0.96875 -4.4375 L 0.046875 -4.4375 L 0.046875 -5.109375 L 0.96875 -5.109375 L 0.96875 -6.34375 Z M 1.84375 -6.34375 "/></g></g></g><g fill="#000000" fill-opacity="1"><g transform="translate(141.268331, 29.63592)"><g><path d="M 3.8125 0 C 3.757812 -0.101562 3.71875 -0.28125 3.6875 -0.53125 C 3.28125 -0.113281 2.796875 0.09375 2.234375 0.09375 C 1.734375 0.09375 1.320312 -0.046875 1 -0.328125 C 0.675781 -0.617188 0.515625 -0.984375 0.515625 -1.421875 C 0.515625 -1.953125 0.71875 -2.363281 1.125 -2.65625 C 1.53125 -2.945312 2.097656 -3.09375 2.828125 -3.09375 L 3.671875 -3.09375 L 3.671875 -3.5 C 3.671875 -3.800781 3.578125 -4.039062 3.390625 -4.21875 C 3.210938 -4.40625 2.945312 -4.5 2.59375 -4.5 C 2.28125 -4.5 2.019531 -4.421875 1.8125 -4.265625 C 1.601562 -4.109375 1.5 -3.914062 1.5 -3.6875 L 0.625 -3.6875 C 0.625 -3.945312 0.710938 -4.191406 0.890625 -4.421875 C 1.066406 -4.660156 1.3125 -4.847656 1.625 -4.984375 C 1.9375 -5.128906 2.28125 -5.203125 2.65625 -5.203125 C 3.238281 -5.203125 3.695312 -5.054688 4.03125 -4.765625 C 4.363281 -4.472656 4.535156 -4.066406 4.546875 -3.546875 L 4.546875 -1.1875 C 4.546875 -0.71875 4.609375 -0.347656 4.734375 -0.078125 L 4.734375 0 Z M 2.359375 -0.671875 C 2.640625 -0.671875 2.898438 -0.738281 3.140625 -0.875 C 3.390625 -1.019531 3.566406 -1.207031 3.671875 -1.4375 L 3.671875 -2.484375 L 3 -2.484375 C 1.925781 -2.484375 1.390625 -2.171875 1.390625 -1.546875 C 1.390625 -1.265625 1.476562 -1.046875 1.65625 -0.890625 C 1.84375 -0.742188 2.078125 -0.671875 2.359375 -0.671875 Z M 2.359375 -0.671875 "/></g></g></g><g fill="#000000" fill-opacity="1"><g transform="translate(146.520887, 29.63592)"><g><path d="M 1.484375 -5.109375 L 1.515625 -4.46875 C 1.898438 -4.957031 2.410156 -5.203125 3.046875 -5.203125 C 4.128906 -5.203125 4.675781 -4.59375 4.6875 -3.375 L 4.6875 0 L 3.8125 0 L 3.8125 -3.375 C 3.800781 -3.75 3.710938 -4.023438 3.546875 -4.203125 C 3.390625 -4.378906 3.132812 -4.46875 2.78125 -4.46875 C 2.5 -4.46875 2.25 -4.390625 2.03125 -4.234375 C 1.820312 -4.085938 1.65625 -3.890625 1.53125 -3.640625 L 1.53125 0 L 0.65625 0 L 0.65625 -5.109375 Z M 1.484375 -5.109375 "/></g></g></g><g fill="#000000" fill-opacity="1"><g transform="translate(151.848883, 29.63592)"><g><path d="M 1.84375 -6.34375 L 1.84375 -5.109375 L 2.796875 -5.109375 L 2.796875 -4.4375 L 1.84375 -4.4375 L 1.84375 -1.265625 C 1.84375 -1.054688 1.882812 -0.898438 1.96875 -0.796875 C 2.050781 -0.703125 2.195312 -0.65625 2.40625 -0.65625 C 2.507812 -0.65625 2.648438 -0.671875 2.828125 -0.703125 L 2.828125 0 C 2.597656 0.0625 2.375 0.09375 2.15625 0.09375 C 1.757812 0.09375 1.460938 -0.0195312 1.265625 -0.25 C 1.066406 -0.488281 0.96875 -0.828125 0.96875 -1.265625 L 0.96875 -4.4375 L 0.046875 -4.4375 L 0.046875 -5.109375 L 0.96875 -5.109375 L 0.96875 -6.34375 Z M 1.84375 -6.34375 "/></g></g></g><g fill="#000000" fill-opacity="1"><g transform="translate(155.003251, 29.63592)"><g><path d="M 1.609375 0 L 0.734375 0 L 0.734375 -7.25 L 1.609375 -7.25 Z M 1.609375 0 "/></g></g></g><g fill="#000000" fill-opacity="1"><g transform="translate(157.346632, 29.63592)"><g><path d="M 2.328125 -1.28125 L 3.515625 -5.109375 L 4.453125 -5.109375 L 2.40625 0.78125 C 2.082031 1.632812 1.578125 2.0625 0.890625 2.0625 L 0.71875 2.046875 L 0.390625 1.984375 L 0.390625 1.28125 L 0.640625 1.296875 C 0.929688 1.296875 1.160156 1.234375 1.328125 1.109375 C 1.492188 0.992188 1.628906 0.78125 1.734375 0.46875 L 1.921875 -0.0625 L 0.109375 -5.109375 L 1.0625 -5.109375 Z M 2.328125 -1.28125 "/></g></g></g></svg>