<svg xmlns="http://www.w3.org/2000/svg" xmlns:xlink="http://www.w3.org/1999/xlink" width="230" zoomAndPan="magnify" viewBox="0 0 172.5 37.5" height="50" preserveAspectRatio="xMidYMid meet" version="1.0"><defs><g/><clipPath id="96b209a430"><path d="M 9 4 L 32 4 L 32 33.558594 L 9 33.558594 Z M 9 4 " clip-rule="nonzero"/></clipPath><clipPath id="6527259dc7"><path d="M 13.980469 8.730469 L 26.753906 8.730469 L 26.753906 21.503906 L 13.980469 21.503906 Z M 13.980469 8.730469 " clip-rule="nonzero"/></clipPath><clipPath id="762830dcaf"><path d="M 20.367188 8.730469 C 16.839844 8.730469 13.980469 11.589844 13.980469 15.117188 C 13.980469 18.644531 16.839844 21.503906 20.367188 21.503906 C 23.894531 21.503906 26.753906 18.644531 26.753906 15.117188 C 26.753906 11.589844 23.894531 8.730469 20.367188 8.730469 Z M 20.367188 8.730469 " clip-rule="nonzero"/></clipPath><clipPath id="4b3c10f584"><path d="M 0.980469 0.730469 L 13.753906 0.730469 L 13.753906 13.503906 L 0.980469 13.503906 Z M 0.980469 0.730469 " clip-rule="nonzero"/></clipPath><clipPath id="7aa06abf64"><path d="M 7.367188 0.730469 C 3.839844 0.730469 0.980469 3.589844 0.980469 7.117188 C 0.980469 10.644531 3.839844 13.503906 7.367188 13.503906 C 10.894531 13.503906 13.753906 10.644531 13.753906 7.117188 C 13.753906 3.589844 10.894531 0.730469 7.367188 0.730469 Z M 7.367188 0.730469 " clip-rule="nonzero"/></clipPath><clipPath id="79f8b3fd75"><rect x="0" width="14" y="0" height="14"/></clipPath><clipPath id="5d280dbf4a"><path d="M 17.035156 11.167969 L 23.699219 11.167969 L 23.699219 20 L 17.035156 20 Z M 17.035156 11.167969 " clip-rule="nonzero"/></clipPath></defs><g clip-path="url(#96b209a430)"><path fill="#f47225" d="M 10.710938 20.402344 L 10.738281 20.449219 L 19.976562 33.578125 C 20.023438 33.640625 20.082031 33.691406 20.152344 33.726562 C 20.226562 33.761719 20.300781 33.777344 20.378906 33.777344 C 20.460938 33.777344 20.535156 33.761719 20.605469 33.726562 C 20.675781 33.691406 20.738281 33.640625 20.785156 33.578125 L 29.988281 20.449219 L 30.019531 20.402344 C 30.25 19.984375 30.453125 19.554688 30.628906 19.109375 C 30.804688 18.664062 30.949219 18.210938 31.066406 17.75 C 31.179688 17.285156 31.265625 16.816406 31.320312 16.34375 C 31.375 15.867188 31.402344 15.390625 31.394531 14.914062 C 31.386719 14.4375 31.347656 13.960938 31.28125 13.488281 C 31.210938 13.015625 31.113281 12.550781 30.984375 12.089844 C 30.855469 11.628906 30.695312 11.179688 30.507812 10.742188 C 30.320312 10.300781 30.105469 9.878906 29.863281 9.464844 C 29.621094 9.054688 29.351562 8.660156 29.058594 8.285156 C 28.765625 7.90625 28.449219 7.550781 28.109375 7.214844 C 27.769531 6.882812 27.40625 6.570312 27.027344 6.28125 C 26.648438 5.992188 26.25 5.730469 25.835938 5.492188 C 25.417969 5.253906 24.992188 5.046875 24.550781 4.867188 C 24.109375 4.683594 23.65625 4.53125 23.195312 4.410156 C 22.734375 4.289062 22.265625 4.195312 21.792969 4.132812 C 21.316406 4.070312 20.84375 4.039062 20.363281 4.039062 C 19.886719 4.039062 19.410156 4.070312 18.9375 4.132812 C 18.464844 4.195312 17.996094 4.289062 17.535156 4.410156 C 17.074219 4.53125 16.621094 4.683594 16.179688 4.867188 C 15.738281 5.046875 15.308594 5.253906 14.894531 5.492188 C 14.480469 5.730469 14.082031 5.992188 13.703125 6.28125 C 13.320312 6.570312 12.960938 6.882812 12.621094 7.214844 C 12.28125 7.550781 11.964844 7.90625 11.667969 8.285156 C 11.375 8.660156 11.109375 9.054688 10.863281 9.464844 C 10.621094 9.878906 10.40625 10.300781 10.21875 10.742188 C 10.03125 11.179688 9.875 11.628906 9.746094 12.089844 C 9.617188 12.550781 9.515625 13.015625 9.449219 13.488281 C 9.378906 13.960938 9.34375 14.4375 9.335938 14.914062 C 9.328125 15.390625 9.351562 15.867188 9.40625 16.34375 C 9.460938 16.816406 9.546875 17.285156 9.664062 17.75 C 9.78125 18.210938 9.925781 18.664062 10.101562 19.109375 C 10.277344 19.554688 10.476562 19.984375 10.710938 20.402344 Z M 20.363281 10.460938 C 20.667969 10.460938 20.96875 10.492188 21.265625 10.550781 C 21.5625 10.609375 21.851562 10.695312 22.132812 10.8125 C 22.410156 10.929688 22.675781 11.070312 22.929688 11.238281 C 23.183594 11.40625 23.414062 11.597656 23.628906 11.8125 C 23.84375 12.027344 24.035156 12.261719 24.203125 12.511719 C 24.371094 12.765625 24.515625 13.03125 24.628906 13.3125 C 24.746094 13.59375 24.832031 13.878906 24.894531 14.179688 C 24.953125 14.476562 24.980469 14.777344 24.980469 15.078125 C 24.980469 15.382812 24.953125 15.683594 24.894531 15.980469 C 24.832031 16.277344 24.746094 16.566406 24.628906 16.847656 C 24.515625 17.125 24.371094 17.390625 24.203125 17.644531 C 24.035156 17.894531 23.84375 18.128906 23.628906 18.34375 C 23.414062 18.558594 23.183594 18.75 22.929688 18.917969 C 22.675781 19.085938 22.410156 19.230469 22.132812 19.34375 C 21.851562 19.460938 21.5625 19.546875 21.265625 19.609375 C 20.96875 19.667969 20.667969 19.695312 20.363281 19.695312 C 20.0625 19.695312 19.761719 19.667969 19.464844 19.609375 C 19.167969 19.546875 18.878906 19.460938 18.597656 19.34375 C 18.316406 19.230469 18.050781 19.085938 17.800781 18.917969 C 17.546875 18.75 17.3125 18.558594 17.101562 18.34375 C 16.886719 18.128906 16.695312 17.894531 16.527344 17.644531 C 16.355469 17.390625 16.214844 17.125 16.097656 16.847656 C 15.984375 16.566406 15.894531 16.277344 15.835938 15.980469 C 15.777344 15.683594 15.746094 15.382812 15.746094 15.078125 C 15.746094 14.777344 15.777344 14.476562 15.835938 14.179688 C 15.894531 13.878906 15.984375 13.59375 16.097656 13.3125 C 16.214844 13.03125 16.355469 12.765625 16.527344 12.511719 C 16.695312 12.261719 16.886719 12.027344 17.101562 11.8125 C 17.3125 11.597656 17.546875 11.40625 17.800781 11.238281 C 18.050781 11.070312 18.316406 10.929688 18.597656 10.8125 C 18.878906 10.695312 19.167969 10.609375 19.464844 10.550781 C 19.761719 10.492188 20.0625 10.460938 20.363281 10.460938 Z M 20.363281 10.460938 " fill-opacity="1" fill-rule="nonzero"/></g><g clip-path="url(#6527259dc7)"><g clip-path="url(#762830dcaf)"><g transform="matrix(1, 0, 0, 1, 13, 8)"><g clip-path="url(#79f8b3fd75)"><g clip-path="url(#4b3c10f584)"><g clip-path="url(#7aa06abf64)"><path fill="#ffffff" d="M 0.980469 0.730469 L 13.753906 0.730469 L 13.753906 13.503906 L 0.980469 13.503906 Z M 0.980469 0.730469 " fill-opacity="1" fill-rule="nonzero"/></g></g></g></g></g></g><g clip-path="url(#5d280dbf4a)"><path fill="#f47225" d="M 23.699219 19.113281 C 23.699219 16.820312 22.207031 14.960938 20.367188 14.960938 C 18.527344 14.960938 17.035156 16.820312 17.035156 19.113281 C 17.035156 19.46875 18.527344 19.761719 20.367188 19.761719 C 22.207031 19.761719 23.699219 19.46875 23.699219 19.113281 Z M 20.367188 11.167969 C 21.371094 11.167969 22.183594 11.980469 22.183594 12.984375 C 22.183594 13.988281 21.371094 14.800781 20.367188 14.800781 C 19.363281 14.800781 18.550781 13.988281 18.550781 12.984375 C 18.550781 11.980469 19.363281 11.167969 20.367188 11.167969 Z M 20.367188 11.167969 " fill-opacity="1" fill-rule="evenodd"/></g><g fill="#f47225" fill-opacity="1"><g transform="translate(36.162264, 20.128568)"><g><path d="M 3.796875 2.328125 C 2.242188 1.890625 1.46875 0.882812 1.46875 -0.6875 L 1.46875 -1.96875 C 1.46875 -2.882812 1.082031 -3.34375 0.3125 -3.34375 L 0.3125 -4.6875 C 1.0625 -4.6875 1.445312 -5.113281 1.46875 -5.96875 L 1.46875 -7.34375 C 1.46875 -8.144531 1.660156 -8.789062 2.046875 -9.28125 C 2.441406 -9.78125 3.023438 -10.140625 3.796875 -10.359375 L 4.15625 -9.3125 C 3.832031 -9.1875 3.585938 -8.972656 3.421875 -8.671875 C 3.253906 -8.378906 3.164062 -7.96875 3.15625 -7.4375 L 3.15625 -6.0625 C 3.15625 -5.09375 2.765625 -4.410156 1.984375 -4.015625 C 2.765625 -3.617188 3.15625 -2.929688 3.15625 -1.953125 L 3.15625 -0.578125 C 3.175781 0.441406 3.507812 1.0625 4.15625 1.28125 Z M 3.796875 2.328125 "/></g></g></g><g fill="#f47225" fill-opacity="1"><g transform="translate(40.544417, 20.128568)"><g><path d="M 8.25 -3.140625 C 8.175781 -2.128906 7.800781 -1.332031 7.125 -0.75 C 6.445312 -0.164062 5.554688 0.125 4.453125 0.125 C 3.242188 0.125 2.289062 -0.28125 1.59375 -1.09375 C 0.90625 -1.90625 0.5625 -3.023438 0.5625 -4.453125 L 0.5625 -5.03125 C 0.5625 -5.9375 0.71875 -6.734375 1.03125 -7.421875 C 1.351562 -8.117188 1.8125 -8.648438 2.40625 -9.015625 C 3 -9.390625 3.691406 -9.578125 4.484375 -9.578125 C 5.566406 -9.578125 6.441406 -9.285156 7.109375 -8.703125 C 7.773438 -8.117188 8.160156 -7.296875 8.265625 -6.234375 L 6.328125 -6.234375 C 6.273438 -6.847656 6.101562 -7.289062 5.8125 -7.5625 C 5.519531 -7.832031 5.078125 -7.96875 4.484375 -7.96875 C 3.835938 -7.96875 3.351562 -7.734375 3.03125 -7.265625 C 2.707031 -6.804688 2.539062 -6.085938 2.53125 -5.109375 L 2.53125 -4.40625 C 2.53125 -3.382812 2.679688 -2.632812 2.984375 -2.15625 C 3.296875 -1.6875 3.785156 -1.453125 4.453125 -1.453125 C 5.054688 -1.453125 5.503906 -1.585938 5.796875 -1.859375 C 6.097656 -2.140625 6.269531 -2.566406 6.3125 -3.140625 Z M 8.25 -3.140625 "/></g></g></g><g fill="#f47225" fill-opacity="1"><g transform="translate(49.230934, 20.128568)"><g><path d="M 7.984375 -9.4375 L 7.984375 -3.21875 C 7.984375 -2.1875 7.660156 -1.367188 7.015625 -0.765625 C 6.367188 -0.171875 5.488281 0.125 4.375 0.125 C 3.269531 0.125 2.390625 -0.164062 1.734375 -0.75 C 1.085938 -1.332031 0.757812 -2.132812 0.75 -3.15625 L 0.75 -9.4375 L 2.703125 -9.4375 L 2.703125 -3.203125 C 2.703125 -2.585938 2.847656 -2.140625 3.140625 -1.859375 C 3.441406 -1.578125 3.851562 -1.4375 4.375 -1.4375 C 5.46875 -1.4375 6.019531 -2.007812 6.03125 -3.15625 L 6.03125 -9.4375 Z M 7.984375 -9.4375 "/></g></g></g><g fill="#f47225" fill-opacity="1"><g transform="translate(57.969311, 20.128568)"><g><path d="M 5.734375 -2.484375 C 5.734375 -2.847656 5.601562 -3.128906 5.34375 -3.328125 C 5.09375 -3.523438 4.628906 -3.734375 3.953125 -3.953125 C 3.273438 -4.171875 2.738281 -4.382812 2.34375 -4.59375 C 1.269531 -5.164062 0.734375 -5.945312 0.734375 -6.9375 C 0.734375 -7.445312 0.878906 -7.898438 1.171875 -8.296875 C 1.460938 -8.691406 1.875 -9.003906 2.40625 -9.234375 C 2.945312 -9.460938 3.550781 -9.578125 4.21875 -9.578125 C 4.894531 -9.578125 5.492188 -9.453125 6.015625 -9.203125 C 6.546875 -8.960938 6.957031 -8.617188 7.25 -8.171875 C 7.539062 -7.722656 7.6875 -7.21875 7.6875 -6.65625 L 5.75 -6.65625 C 5.75 -7.082031 5.609375 -7.414062 5.328125 -7.65625 C 5.054688 -7.894531 4.675781 -8.015625 4.1875 -8.015625 C 3.707031 -8.015625 3.335938 -7.914062 3.078125 -7.71875 C 2.816406 -7.519531 2.6875 -7.253906 2.6875 -6.921875 C 2.6875 -6.617188 2.835938 -6.363281 3.140625 -6.15625 C 3.453125 -5.945312 3.910156 -5.753906 4.515625 -5.578125 C 5.617188 -5.242188 6.421875 -4.828125 6.921875 -4.328125 C 7.429688 -3.835938 7.6875 -3.222656 7.6875 -2.484375 C 7.6875 -1.671875 7.378906 -1.03125 6.765625 -0.5625 C 6.148438 -0.101562 5.316406 0.125 4.265625 0.125 C 3.535156 0.125 2.875 -0.00390625 2.28125 -0.265625 C 1.6875 -0.535156 1.234375 -0.898438 0.921875 -1.359375 C 0.609375 -1.828125 0.453125 -2.363281 0.453125 -2.96875 L 2.40625 -2.96875 C 2.40625 -1.925781 3.023438 -1.40625 4.265625 -1.40625 C 4.734375 -1.40625 5.09375 -1.5 5.34375 -1.6875 C 5.601562 -1.875 5.734375 -2.140625 5.734375 -2.484375 Z M 5.734375 -2.484375 "/></g></g></g><g fill="#f47225" fill-opacity="1"><g transform="translate(66.130748, 20.128568)"><g><path d="M 7.953125 -7.859375 L 5.0625 -7.859375 L 5.0625 0 L 3.109375 0 L 3.109375 -7.859375 L 0.265625 -7.859375 L 0.265625 -9.4375 L 7.953125 -9.4375 Z M 7.953125 -7.859375 "/></g></g></g><g fill="#f47225" fill-opacity="1"><g transform="translate(74.16241, 20.128568)"><g><path d="M 8.59375 -4.5 C 8.59375 -3.570312 8.425781 -2.757812 8.09375 -2.0625 C 7.769531 -1.363281 7.300781 -0.820312 6.6875 -0.4375 C 6.082031 -0.0625 5.382812 0.125 4.59375 0.125 C 3.8125 0.125 3.113281 -0.0625 2.5 -0.4375 C 1.882812 -0.8125 1.40625 -1.347656 1.0625 -2.046875 C 0.726562 -2.742188 0.5625 -3.546875 0.5625 -4.453125 L 0.5625 -4.921875 C 0.5625 -5.847656 0.726562 -6.664062 1.0625 -7.375 C 1.394531 -8.082031 1.863281 -8.625 2.46875 -9 C 3.082031 -9.382812 3.785156 -9.578125 4.578125 -9.578125 C 5.367188 -9.578125 6.066406 -9.382812 6.671875 -9 C 7.285156 -8.625 7.757812 -8.082031 8.09375 -7.375 C 8.425781 -6.664062 8.59375 -5.847656 8.59375 -4.921875 Z M 6.625 -4.9375 C 6.625 -5.925781 6.445312 -6.675781 6.09375 -7.1875 C 5.738281 -7.707031 5.234375 -7.96875 4.578125 -7.96875 C 3.921875 -7.96875 3.414062 -7.710938 3.0625 -7.203125 C 2.707031 -6.691406 2.53125 -5.945312 2.53125 -4.96875 L 2.53125 -4.5 C 2.53125 -3.539062 2.707031 -2.796875 3.0625 -2.265625 C 3.414062 -1.734375 3.925781 -1.46875 4.59375 -1.46875 C 5.25 -1.46875 5.75 -1.722656 6.09375 -2.234375 C 6.445312 -2.742188 6.625 -3.488281 6.625 -4.46875 Z M 6.625 -4.9375 "/></g></g></g><g fill="#f47225" fill-opacity="1"><g transform="translate(83.328631, 20.128568)"><g><path d="M 3.390625 -9.4375 L 5.8125 -2.59375 L 8.21875 -9.4375 L 10.78125 -9.4375 L 10.78125 0 L 8.828125 0 L 8.828125 -2.578125 L 9.015625 -7.03125 L 6.46875 0 L 5.140625 0 L 2.59375 -7.03125 L 2.78125 -2.578125 L 2.78125 0 L 0.84375 0 L 0.84375 -9.4375 Z M 3.390625 -9.4375 "/></g></g></g><g fill="#f47225" fill-opacity="1"><g transform="translate(94.958192, 20.128568)"><g><path d="M 6.53125 -4.09375 L 2.78125 -4.09375 L 2.78125 -1.5625 L 7.171875 -1.5625 L 7.171875 0 L 0.84375 0 L 0.84375 -9.4375 L 7.15625 -9.4375 L 7.15625 -7.859375 L 2.78125 -7.859375 L 2.78125 -5.609375 L 6.53125 -5.609375 Z M 6.53125 -4.09375 "/></g></g></g><g fill="#f47225" fill-opacity="1"><g transform="translate(102.426003, 20.128568)"><g><path d="M 4.34375 -3.453125 L 2.78125 -3.453125 L 2.78125 0 L 0.84375 0 L 0.84375 -9.4375 L 4.34375 -9.4375 C 5.46875 -9.4375 6.332031 -9.1875 6.9375 -8.6875 C 7.539062 -8.195312 7.84375 -7.5 7.84375 -6.59375 C 7.84375 -5.945312 7.703125 -5.40625 7.421875 -4.96875 C 7.140625 -4.539062 6.71875 -4.203125 6.15625 -3.953125 L 8.203125 -0.09375 L 8.203125 0 L 6.109375 0 Z M 2.78125 -5.03125 L 4.359375 -5.03125 C 4.847656 -5.03125 5.222656 -5.15625 5.484375 -5.40625 C 5.753906 -5.65625 5.890625 -6 5.890625 -6.4375 C 5.890625 -6.875 5.765625 -7.21875 5.515625 -7.46875 C 5.265625 -7.726562 4.875 -7.859375 4.34375 -7.859375 L 2.78125 -7.859375 Z M 2.78125 -5.03125 "/></g></g></g><g fill="#f47225" fill-opacity="1"><g transform="translate(110.898599, 20.128568)"><g><path d="M 0.21875 1.28125 C 0.875 1.050781 1.210938 0.425781 1.234375 -0.59375 L 1.234375 -1.96875 C 1.234375 -2.945312 1.628906 -3.625 2.421875 -4 C 1.628906 -4.382812 1.234375 -5.078125 1.234375 -6.078125 L 1.234375 -7.4375 C 1.210938 -8.4375 0.875 -9.0625 0.21875 -9.3125 L 0.578125 -10.359375 C 1.359375 -10.140625 1.941406 -9.785156 2.328125 -9.296875 C 2.710938 -8.804688 2.910156 -8.160156 2.921875 -7.359375 L 2.921875 -5.96875 C 2.929688 -5.113281 3.316406 -4.6875 4.078125 -4.6875 L 4.078125 -3.34375 C 3.304688 -3.34375 2.921875 -2.890625 2.921875 -1.984375 L 2.921875 -0.578125 C 2.878906 0.929688 2.097656 1.898438 0.578125 2.328125 Z M 0.21875 1.28125 "/></g></g></g><g fill="#ffffff" fill-opacity="1"><g transform="translate(115.286952, 20.128568)"><g><path d="M 8.515625 0 L 6.578125 0 L 2.78125 -6.21875 L 2.78125 0 L 0.84375 0 L 0.84375 -9.4375 L 2.78125 -9.4375 L 6.578125 -3.21875 L 6.578125 -9.4375 L 8.515625 -9.4375 Z M 8.515625 0 "/></g></g></g><g fill="#ffffff" fill-opacity="1"><g transform="translate(124.660611, 20.128568)"><g><path d="M 3.953125 0.125 C 2.921875 0.125 2.082031 -0.1875 1.4375 -0.8125 C 0.789062 -1.445312 0.46875 -2.289062 0.46875 -3.34375 L 0.46875 -3.515625 C 0.46875 -4.222656 0.601562 -4.851562 0.875 -5.40625 C 1.144531 -5.96875 1.53125 -6.394531 2.03125 -6.6875 C 2.53125 -6.988281 3.097656 -7.140625 3.734375 -7.140625 C 4.703125 -7.140625 5.457031 -6.835938 6 -6.234375 C 6.550781 -5.628906 6.828125 -4.769531 6.828125 -3.65625 L 6.828125 -2.90625 L 2.359375 -2.90625 C 2.421875 -2.445312 2.601562 -2.078125 2.90625 -1.796875 C 3.21875 -1.515625 3.609375 -1.375 4.078125 -1.375 C 4.796875 -1.375 5.359375 -1.640625 5.765625 -2.171875 L 6.6875 -1.140625 C 6.40625 -0.734375 6.023438 -0.421875 5.546875 -0.203125 C 5.066406 0.015625 4.535156 0.125 3.953125 0.125 Z M 3.734375 -5.625 C 3.359375 -5.625 3.054688 -5.5 2.828125 -5.25 C 2.597656 -5 2.453125 -4.640625 2.390625 -4.171875 L 5 -4.171875 L 5 -4.328125 C 4.988281 -4.742188 4.875 -5.0625 4.65625 -5.28125 C 4.4375 -5.507812 4.128906 -5.625 3.734375 -5.625 Z M 3.734375 -5.625 "/></g></g></g><g fill="#ffffff" fill-opacity="1"><g transform="translate(131.836712, 20.128568)"><g><path d="M 4.78125 0 C 4.695312 -0.164062 4.632812 -0.375 4.59375 -0.625 C 4.144531 -0.125 3.554688 0.125 2.828125 0.125 C 2.140625 0.125 1.566406 -0.0703125 1.109375 -0.46875 C 0.660156 -0.863281 0.4375 -1.363281 0.4375 -1.96875 C 0.4375 -2.71875 0.710938 -3.289062 1.265625 -3.6875 C 1.816406 -4.082031 2.613281 -4.28125 3.65625 -4.28125 L 4.515625 -4.28125 L 4.515625 -4.6875 C 4.515625 -5.007812 4.429688 -5.269531 4.265625 -5.46875 C 4.097656 -5.664062 3.835938 -5.765625 3.484375 -5.765625 C 3.171875 -5.765625 2.921875 -5.6875 2.734375 -5.53125 C 2.554688 -5.382812 2.46875 -5.175781 2.46875 -4.90625 L 0.59375 -4.90625 C 0.59375 -5.3125 0.71875 -5.6875 0.96875 -6.03125 C 1.21875 -6.382812 1.570312 -6.65625 2.03125 -6.84375 C 2.488281 -7.039062 3.003906 -7.140625 3.578125 -7.140625 C 4.441406 -7.140625 5.128906 -6.921875 5.640625 -6.484375 C 6.148438 -6.054688 6.40625 -5.445312 6.40625 -4.65625 L 6.40625 -1.625 C 6.40625 -0.957031 6.492188 -0.453125 6.671875 -0.109375 L 6.671875 0 Z M 3.234375 -1.296875 C 3.515625 -1.296875 3.769531 -1.359375 4 -1.484375 C 4.226562 -1.609375 4.398438 -1.773438 4.515625 -1.984375 L 4.515625 -3.1875 L 3.8125 -3.1875 C 2.875 -3.1875 2.378906 -2.863281 2.328125 -2.21875 L 2.3125 -2.109375 C 2.3125 -1.867188 2.394531 -1.671875 2.5625 -1.515625 C 2.726562 -1.367188 2.953125 -1.296875 3.234375 -1.296875 Z M 3.234375 -1.296875 "/></g></g></g><g fill="#ffffff" fill-opacity="1"><g transform="translate(138.95447, 20.128568)"><g><path d="M 4.65625 -5.265625 C 4.40625 -5.296875 4.179688 -5.3125 3.984375 -5.3125 C 3.273438 -5.3125 2.8125 -5.070312 2.59375 -4.59375 L 2.59375 0 L 0.71875 0 L 0.71875 -7.015625 L 2.484375 -7.015625 L 2.546875 -6.1875 C 2.921875 -6.820312 3.441406 -7.140625 4.109375 -7.140625 C 4.316406 -7.140625 4.507812 -7.113281 4.6875 -7.0625 Z M 4.65625 -5.265625 "/></g></g></g><g fill="#ffffff" fill-opacity="1"><g transform="translate(143.796879, 20.128568)"><g><path d="M 3.390625 -9.4375 L 5.8125 -2.59375 L 8.21875 -9.4375 L 10.78125 -9.4375 L 10.78125 0 L 8.828125 0 L 8.828125 -2.578125 L 9.015625 -7.03125 L 6.46875 0 L 5.140625 0 L 2.59375 -7.03125 L 2.78125 -2.578125 L 2.78125 0 L 0.84375 0 L 0.84375 -9.4375 Z M 3.390625 -9.4375 "/></g></g></g><g fill="#ffffff" fill-opacity="1"><g transform="translate(155.42644, 20.128568)"><g><path d="M 3.953125 0.125 C 2.921875 0.125 2.082031 -0.1875 1.4375 -0.8125 C 0.789062 -1.445312 0.46875 -2.289062 0.46875 -3.34375 L 0.46875 -3.515625 C 0.46875 -4.222656 0.601562 -4.851562 0.875 -5.40625 C 1.144531 -5.96875 1.53125 -6.394531 2.03125 -6.6875 C 2.53125 -6.988281 3.097656 -7.140625 3.734375 -7.140625 C 4.703125 -7.140625 5.457031 -6.835938 6 -6.234375 C 6.550781 -5.628906 6.828125 -4.769531 6.828125 -3.65625 L 6.828125 -2.90625 L 2.359375 -2.90625 C 2.421875 -2.445312 2.601562 -2.078125 2.90625 -1.796875 C 3.21875 -1.515625 3.609375 -1.375 4.078125 -1.375 C 4.796875 -1.375 5.359375 -1.640625 5.765625 -2.171875 L 6.6875 -1.140625 C 6.40625 -0.734375 6.023438 -0.421875 5.546875 -0.203125 C 5.066406 0.015625 4.535156 0.125 3.953125 0.125 Z M 3.734375 -5.625 C 3.359375 -5.625 3.054688 -5.5 2.828125 -5.25 C 2.597656 -5 2.453125 -4.640625 2.390625 -4.171875 L 5 -4.171875 L 5 -4.328125 C 4.988281 -4.742188 4.875 -5.0625 4.65625 -5.28125 C 4.4375 -5.507812 4.128906 -5.625 3.734375 -5.625 Z M 3.734375 -5.625 "/></g></g></g><g fill="#ffffff" fill-opacity="1"><g transform="translate(162.609113, 20.128568)"><g/></g></g><g fill="#ffffff" fill-opacity="1"><g transform="translate(38.079768, 29.63592)"><g><path d="M 3.078125 -1.203125 L 5.03125 -6.875 L 6.03125 -6.875 L 3.484375 0 L 2.671875 0 L 0.125 -6.875 L 1.125 -6.875 Z M 3.078125 -1.203125 "/></g></g></g><g fill="#ffffff" fill-opacity="1"><g transform="translate(44.015807, 29.63592)"><g><path d="M 2.78125 0.09375 C 2.09375 0.09375 1.53125 -0.128906 1.09375 -0.578125 C 0.65625 -1.035156 0.4375 -1.644531 0.4375 -2.40625 L 0.4375 -2.578125 C 0.4375 -3.078125 0.53125 -3.523438 0.71875 -3.921875 C 0.914062 -4.328125 1.1875 -4.640625 1.53125 -4.859375 C 1.882812 -5.085938 2.265625 -5.203125 2.671875 -5.203125 C 3.335938 -5.203125 3.851562 -4.984375 4.21875 -4.546875 C 4.59375 -4.109375 4.78125 -3.484375 4.78125 -2.671875 L 4.78125 -2.296875 L 1.3125 -2.296875 C 1.320312 -1.796875 1.46875 -1.390625 1.75 -1.078125 C 2.03125 -0.773438 2.390625 -0.625 2.828125 -0.625 C 3.140625 -0.625 3.398438 -0.6875 3.609375 -0.8125 C 3.828125 -0.9375 4.015625 -1.101562 4.171875 -1.3125 L 4.703125 -0.890625 C 4.273438 -0.234375 3.632812 0.09375 2.78125 0.09375 Z M 2.671875 -4.484375 C 2.316406 -4.484375 2.019531 -4.351562 1.78125 -4.09375 C 1.539062 -3.84375 1.394531 -3.484375 1.34375 -3.015625 L 3.90625 -3.015625 L 3.90625 -3.09375 C 3.875 -3.53125 3.75 -3.867188 3.53125 -4.109375 C 3.320312 -4.359375 3.035156 -4.484375 2.671875 -4.484375 Z M 2.671875 -4.484375 "/></g></g></g><g fill="#ffffff" fill-opacity="1"><g transform="translate(49.131632, 29.63592)"><g><path d="M 3.125 -4.328125 C 3 -4.347656 2.859375 -4.359375 2.703125 -4.359375 C 2.128906 -4.359375 1.738281 -4.113281 1.53125 -3.625 L 1.53125 0 L 0.65625 0 L 0.65625 -5.109375 L 1.515625 -5.109375 L 1.53125 -4.515625 C 1.8125 -4.972656 2.21875 -5.203125 2.75 -5.203125 C 2.914062 -5.203125 3.039062 -5.179688 3.125 -5.140625 Z M 3.125 -4.328125 "/></g></g></g><g fill="#ffffff" fill-opacity="1"><g transform="translate(52.399161, 29.63592)"><g><path d="M 1.609375 0 L 0.734375 0 L 0.734375 -5.109375 L 1.609375 -5.109375 Z M 0.671875 -6.46875 C 0.671875 -6.601562 0.710938 -6.71875 0.796875 -6.8125 C 0.878906 -6.914062 1.003906 -6.96875 1.171875 -6.96875 C 1.347656 -6.96875 1.476562 -6.914062 1.5625 -6.8125 C 1.65625 -6.71875 1.703125 -6.597656 1.703125 -6.453125 C 1.703125 -6.316406 1.65625 -6.203125 1.5625 -6.109375 C 1.476562 -6.015625 1.347656 -5.96875 1.171875 -5.96875 C 1.003906 -5.96875 0.878906 -6.015625 0.796875 -6.109375 C 0.710938 -6.203125 0.671875 -6.320312 0.671875 -6.46875 Z M 0.671875 -6.46875 "/></g></g></g><g fill="#ffffff" fill-opacity="1"><g transform="translate(54.742542, 29.63592)"><g><path d="M 1.09375 0 L 1.09375 -4.4375 L 0.28125 -4.4375 L 0.28125 -5.109375 L 1.09375 -5.109375 L 1.09375 -5.640625 C 1.09375 -6.179688 1.238281 -6.601562 1.53125 -6.90625 C 1.820312 -7.207031 2.234375 -7.359375 2.765625 -7.359375 C 2.972656 -7.359375 3.175781 -7.328125 3.375 -7.265625 L 3.328125 -6.5625 C 3.179688 -6.59375 3.023438 -6.609375 2.859375 -6.609375 C 2.566406 -6.609375 2.34375 -6.523438 2.1875 -6.359375 C 2.039062 -6.191406 1.96875 -5.953125 1.96875 -5.640625 L 1.96875 -5.109375 L 3.0625 -5.109375 L 3.0625 -4.4375 L 1.96875 -4.4375 L 1.96875 0 Z M 1.09375 0 "/></g></g></g><g fill="#ffffff" fill-opacity="1"><g transform="translate(58.094942, 29.63592)"><g><path d="M 1.609375 0 L 0.734375 0 L 0.734375 -5.109375 L 1.609375 -5.109375 Z M 0.671875 -6.46875 C 0.671875 -6.601562 0.710938 -6.71875 0.796875 -6.8125 C 0.878906 -6.914062 1.003906 -6.96875 1.171875 -6.96875 C 1.347656 -6.96875 1.476562 -6.914062 1.5625 -6.8125 C 1.65625 -6.71875 1.703125 -6.597656 1.703125 -6.453125 C 1.703125 -6.316406 1.65625 -6.203125 1.5625 -6.109375 C 1.476562 -6.015625 1.347656 -5.96875 1.171875 -5.96875 C 1.003906 -5.96875 0.878906 -6.015625 0.796875 -6.109375 C 0.710938 -6.203125 0.671875 -6.320312 0.671875 -6.46875 Z M 0.671875 -6.46875 "/></g></g></g><g fill="#ffffff" fill-opacity="1"><g transform="translate(60.438323, 29.63592)"><g><path d="M 2.78125 0.09375 C 2.09375 0.09375 1.53125 -0.128906 1.09375 -0.578125 C 0.65625 -1.035156 0.4375 -1.644531 0.4375 -2.40625 L 0.4375 -2.578125 C 0.4375 -3.078125 0.53125 -3.523438 0.71875 -3.921875 C 0.914062 -4.328125 1.1875 -4.640625 1.53125 -4.859375 C 1.882812 -5.085938 2.265625 -5.203125 2.671875 -5.203125 C 3.335938 -5.203125 3.851562 -4.984375 4.21875 -4.546875 C 4.59375 -4.109375 4.78125 -3.484375 4.78125 -2.671875 L 4.78125 -2.296875 L 1.3125 -2.296875 C 1.320312 -1.796875 1.46875 -1.390625 1.75 -1.078125 C 2.03125 -0.773438 2.390625 -0.625 2.828125 -0.625 C 3.140625 -0.625 3.398438 -0.6875 3.609375 -0.8125 C 3.828125 -0.9375 4.015625 -1.101562 4.171875 -1.3125 L 4.703125 -0.890625 C 4.273438 -0.234375 3.632812 0.09375 2.78125 0.09375 Z M 2.671875 -4.484375 C 2.316406 -4.484375 2.019531 -4.351562 1.78125 -4.09375 C 1.539062 -3.84375 1.394531 -3.484375 1.34375 -3.015625 L 3.90625 -3.015625 L 3.90625 -3.09375 C 3.875 -3.53125 3.75 -3.867188 3.53125 -4.109375 C 3.320312 -4.359375 3.035156 -4.484375 2.671875 -4.484375 Z M 2.671875 -4.484375 "/></g></g></g><g fill="#ffffff" fill-opacity="1"><g transform="translate(65.554148, 29.63592)"><g><path d="M 0.453125 -2.59375 C 0.453125 -3.375 0.632812 -4.003906 1 -4.484375 C 1.375 -4.960938 1.863281 -5.203125 2.46875 -5.203125 C 3.0625 -5.203125 3.535156 -5 3.890625 -4.59375 L 3.890625 -7.25 L 4.765625 -7.25 L 4.765625 0 L 3.953125 0 L 3.921875 -0.546875 C 3.566406 -0.117188 3.078125 0.09375 2.453125 0.09375 C 1.859375 0.09375 1.375 -0.144531 1 -0.625 C 0.632812 -1.113281 0.453125 -1.75 0.453125 -2.53125 Z M 1.328125 -2.5 C 1.328125 -1.914062 1.445312 -1.457031 1.6875 -1.125 C 1.925781 -0.800781 2.253906 -0.640625 2.671875 -0.640625 C 3.222656 -0.640625 3.628906 -0.890625 3.890625 -1.390625 L 3.890625 -3.734375 C 3.628906 -4.222656 3.226562 -4.46875 2.6875 -4.46875 C 2.257812 -4.46875 1.925781 -4.300781 1.6875 -3.96875 C 1.445312 -3.632812 1.328125 -3.144531 1.328125 -2.5 Z M 1.328125 -2.5 "/></g></g></g><g fill="#ffffff" fill-opacity="1"><g transform="translate(73.390557, 29.63592)"><g><path d="M 5.875 -0.90625 C 5.644531 -0.570312 5.320312 -0.320312 4.90625 -0.15625 C 4.488281 0.0078125 4 0.09375 3.4375 0.09375 C 2.882812 0.09375 2.390625 -0.0351562 1.953125 -0.296875 C 1.515625 -0.554688 1.175781 -0.929688 0.9375 -1.421875 C 0.695312 -1.910156 0.578125 -2.472656 0.578125 -3.109375 L 0.578125 -3.703125 C 0.578125 -4.742188 0.816406 -5.546875 1.296875 -6.109375 C 1.785156 -6.679688 2.46875 -6.96875 3.34375 -6.96875 C 4.0625 -6.96875 4.640625 -6.785156 5.078125 -6.421875 C 5.515625 -6.054688 5.78125 -5.535156 5.875 -4.859375 L 4.96875 -4.859375 C 4.800781 -5.765625 4.257812 -6.21875 3.34375 -6.21875 C 2.738281 -6.21875 2.28125 -6.003906 1.96875 -5.578125 C 1.65625 -5.148438 1.492188 -4.535156 1.484375 -3.734375 L 1.484375 -3.171875 C 1.484375 -2.398438 1.660156 -1.785156 2.015625 -1.328125 C 2.367188 -0.867188 2.847656 -0.640625 3.453125 -0.640625 C 3.785156 -0.640625 4.078125 -0.675781 4.328125 -0.75 C 4.585938 -0.832031 4.800781 -0.960938 4.96875 -1.140625 L 4.96875 -2.6875 L 3.375 -2.6875 L 3.375 -3.421875 L 5.875 -3.421875 Z M 5.875 -0.90625 "/></g></g></g><g fill="#ffffff" fill-opacity="1"><g transform="translate(79.968045, 29.63592)"><g><path d="M 1.96875 -6.875 L 4.21875 -1.265625 L 6.46875 -6.875 L 7.640625 -6.875 L 7.640625 0 L 6.734375 0 L 6.734375 -2.671875 L 6.8125 -5.5625 L 4.5625 0 L 3.875 0 L 1.609375 -5.546875 L 1.703125 -2.671875 L 1.703125 0 L 0.796875 0 L 0.796875 -6.875 Z M 1.96875 -6.875 "/></g></g></g><g fill="#ffffff" fill-opacity="1"><g transform="translate(88.398538, 29.63592)"><g><path d="M 0.796875 0 L 0.796875 -6.875 L 3.046875 -6.875 C 3.796875 -6.875 4.359375 -6.71875 4.734375 -6.40625 C 5.109375 -6.101562 5.296875 -5.648438 5.296875 -5.046875 C 5.296875 -4.722656 5.203125 -4.4375 5.015625 -4.1875 C 4.835938 -3.945312 4.59375 -3.757812 4.28125 -3.625 C 4.644531 -3.519531 4.9375 -3.320312 5.15625 -3.03125 C 5.375 -2.738281 5.484375 -2.390625 5.484375 -1.984375 C 5.484375 -1.367188 5.28125 -0.882812 4.875 -0.53125 C 4.476562 -0.175781 3.914062 0 3.1875 0 Z M 1.703125 -3.21875 L 1.703125 -0.734375 L 3.203125 -0.734375 C 3.617188 -0.734375 3.945312 -0.84375 4.1875 -1.0625 C 4.4375 -1.28125 4.5625 -1.582031 4.5625 -1.96875 C 4.5625 -2.800781 4.113281 -3.21875 3.21875 -3.21875 Z M 1.703125 -3.9375 L 3.078125 -3.9375 C 3.472656 -3.9375 3.785156 -4.035156 4.015625 -4.234375 C 4.253906 -4.429688 4.375 -4.703125 4.375 -5.046875 C 4.375 -5.421875 4.265625 -5.691406 4.046875 -5.859375 C 3.828125 -6.035156 3.492188 -6.125 3.046875 -6.125 L 1.703125 -6.125 Z M 1.703125 -3.9375 "/></g></g></g><g fill="#ffffff" fill-opacity="1"><g transform="translate(94.410221, 29.63592)"><g/></g></g><g fill="#ffffff" fill-opacity="1"><g transform="translate(96.800752, 29.63592)"><g><path d="M 1.703125 -0.734375 L 4.96875 -0.734375 L 4.96875 0 L 0.796875 0 L 0.796875 -6.875 L 1.703125 -6.875 Z M 1.703125 -0.734375 "/></g></g></g><g fill="#ffffff" fill-opacity="1"><g transform="translate(101.996727, 29.63592)"><g><path d="M 2.78125 0.09375 C 2.09375 0.09375 1.53125 -0.128906 1.09375 -0.578125 C 0.65625 -1.035156 0.4375 -1.644531 0.4375 -2.40625 L 0.4375 -2.578125 C 0.4375 -3.078125 0.53125 -3.523438 0.71875 -3.921875 C 0.914062 -4.328125 1.1875 -4.640625 1.53125 -4.859375 C 1.882812 -5.085938 2.265625 -5.203125 2.671875 -5.203125 C 3.335938 -5.203125 3.851562 -4.984375 4.21875 -4.546875 C 4.59375 -4.109375 4.78125 -3.484375 4.78125 -2.671875 L 4.78125 -2.296875 L 1.3125 -2.296875 C 1.320312 -1.796875 1.46875 -1.390625 1.75 -1.078125 C 2.03125 -0.773438 2.390625 -0.625 2.828125 -0.625 C 3.140625 -0.625 3.398438 -0.6875 3.609375 -0.8125 C 3.828125 -0.9375 4.015625 -1.101562 4.171875 -1.3125 L 4.703125 -0.890625 C 4.273438 -0.234375 3.632812 0.09375 2.78125 0.09375 Z M 2.671875 -4.484375 C 2.316406 -4.484375 2.019531 -4.351562 1.78125 -4.09375 C 1.539062 -3.84375 1.394531 -3.484375 1.34375 -3.015625 L 3.90625 -3.015625 L 3.90625 -3.09375 C 3.875 -3.53125 3.75 -3.867188 3.53125 -4.109375 C 3.320312 -4.359375 3.035156 -4.484375 2.671875 -4.484375 Z M 2.671875 -4.484375 "/></g></g></g><g fill="#ffffff" fill-opacity="1"><g transform="translate(107.112552, 29.63592)"><g><path d="M 3.8125 0 C 3.757812 -0.101562 3.71875 -0.28125 3.6875 -0.53125 C 3.28125 -0.113281 2.796875 0.09375 2.234375 0.09375 C 1.734375 0.09375 1.320312 -0.046875 1 -0.328125 C 0.675781 -0.617188 0.515625 -0.984375 0.515625 -1.421875 C 0.515625 -1.953125 0.71875 -2.363281 1.125 -2.65625 C 1.53125 -2.945312 2.097656 -3.09375 2.828125 -3.09375 L 3.671875 -3.09375 L 3.671875 -3.5 C 3.671875 -3.800781 3.578125 -4.039062 3.390625 -4.21875 C 3.210938 -4.40625 2.945312 -4.5 2.59375 -4.5 C 2.28125 -4.5 2.019531 -4.421875 1.8125 -4.265625 C 1.601562 -4.109375 1.5 -3.914062 1.5 -3.6875 L 0.625 -3.6875 C 0.625 -3.945312 0.710938 -4.191406 0.890625 -4.421875 C 1.066406 -4.660156 1.3125 -4.847656 1.625 -4.984375 C 1.9375 -5.128906 2.28125 -5.203125 2.65625 -5.203125 C 3.238281 -5.203125 3.695312 -5.054688 4.03125 -4.765625 C 4.363281 -4.472656 4.535156 -4.066406 4.546875 -3.546875 L 4.546875 -1.1875 C 4.546875 -0.71875 4.609375 -0.347656 4.734375 -0.078125 L 4.734375 0 Z M 2.359375 -0.671875 C 2.640625 -0.671875 2.898438 -0.738281 3.140625 -0.875 C 3.390625 -1.019531 3.566406 -1.207031 3.671875 -1.4375 L 3.671875 -2.484375 L 3 -2.484375 C 1.925781 -2.484375 1.390625 -2.171875 1.390625 -1.546875 C 1.390625 -1.265625 1.476562 -1.046875 1.65625 -0.890625 C 1.84375 -0.742188 2.078125 -0.671875 2.359375 -0.671875 Z M 2.359375 -0.671875 "/></g></g></g><g fill="#ffffff" fill-opacity="1"><g transform="translate(112.365108, 29.63592)"><g><path d="M 0.453125 -2.59375 C 0.453125 -3.375 0.632812 -4.003906 1 -4.484375 C 1.375 -4.960938 1.863281 -5.203125 2.46875 -5.203125 C 3.0625 -5.203125 3.535156 -5 3.890625 -4.59375 L 3.890625 -7.25 L 4.765625 -7.25 L 4.765625 0 L 3.953125 0 L 3.921875 -0.546875 C 3.566406 -0.117188 3.078125 0.09375 2.453125 0.09375 C 1.859375 0.09375 1.375 -0.144531 1 -0.625 C 0.632812 -1.113281 0.453125 -1.75 0.453125 -2.53125 Z M 1.328125 -2.5 C 1.328125 -1.914062 1.445312 -1.457031 1.6875 -1.125 C 1.925781 -0.800781 2.253906 -0.640625 2.671875 -0.640625 C 3.222656 -0.640625 3.628906 -0.890625 3.890625 -1.390625 L 3.890625 -3.734375 C 3.628906 -4.222656 3.226562 -4.46875 2.6875 -4.46875 C 2.257812 -4.46875 1.925781 -4.300781 1.6875 -3.96875 C 1.445312 -3.632812 1.328125 -3.144531 1.328125 -2.5 Z M 1.328125 -2.5 "/></g></g></g><g fill="#ffffff" fill-opacity="1"><g transform="translate(117.810986, 29.63592)"><g><path d="M 3.640625 -1.359375 C 3.640625 -1.585938 3.550781 -1.765625 3.375 -1.890625 C 3.195312 -2.023438 2.882812 -2.140625 2.4375 -2.234375 C 2 -2.335938 1.648438 -2.453125 1.390625 -2.578125 C 1.128906 -2.710938 0.9375 -2.867188 0.8125 -3.046875 C 0.6875 -3.234375 0.625 -3.453125 0.625 -3.703125 C 0.625 -4.117188 0.800781 -4.472656 1.15625 -4.765625 C 1.507812 -5.054688 1.960938 -5.203125 2.515625 -5.203125 C 3.085938 -5.203125 3.554688 -5.050781 3.921875 -4.75 C 4.285156 -4.457031 4.46875 -4.078125 4.46875 -3.609375 L 3.578125 -3.609375 C 3.578125 -3.847656 3.472656 -4.050781 3.265625 -4.21875 C 3.066406 -4.394531 2.816406 -4.484375 2.515625 -4.484375 C 2.191406 -4.484375 1.941406 -4.414062 1.765625 -4.28125 C 1.585938 -4.144531 1.5 -3.960938 1.5 -3.734375 C 1.5 -3.523438 1.582031 -3.363281 1.75 -3.25 C 1.914062 -3.144531 2.21875 -3.046875 2.65625 -2.953125 C 3.09375 -2.859375 3.445312 -2.742188 3.71875 -2.609375 C 3.988281 -2.472656 4.1875 -2.304688 4.3125 -2.109375 C 4.445312 -1.921875 4.515625 -1.691406 4.515625 -1.421875 C 4.515625 -0.960938 4.332031 -0.59375 3.96875 -0.3125 C 3.601562 -0.0390625 3.128906 0.09375 2.546875 0.09375 C 2.128906 0.09375 1.765625 0.0195312 1.453125 -0.125 C 1.140625 -0.269531 0.894531 -0.472656 0.71875 -0.734375 C 0.539062 -0.992188 0.453125 -1.273438 0.453125 -1.578125 L 1.328125 -1.578125 C 1.335938 -1.285156 1.453125 -1.050781 1.671875 -0.875 C 1.890625 -0.707031 2.179688 -0.625 2.546875 -0.625 C 2.867188 -0.625 3.128906 -0.6875 3.328125 -0.8125 C 3.535156 -0.945312 3.640625 -1.128906 3.640625 -1.359375 Z M 3.640625 -1.359375 "/></g></g></g><g fill="#ffffff" fill-opacity="1"><g transform="translate(122.790069, 29.63592)"><g/></g></g><g fill="#ffffff" fill-opacity="1"><g transform="translate(125.180601, 29.63592)"><g><path d="M 1.765625 0 L 0.859375 0 L 0.859375 -6.875 L 1.765625 -6.875 Z M 1.765625 0 "/></g></g></g><g fill="#ffffff" fill-opacity="1"><g transform="translate(127.806884, 29.63592)"><g><path d="M 1.484375 -5.109375 L 1.515625 -4.46875 C 1.898438 -4.957031 2.410156 -5.203125 3.046875 -5.203125 C 4.128906 -5.203125 4.675781 -4.59375 4.6875 -3.375 L 4.6875 0 L 3.8125 0 L 3.8125 -3.375 C 3.800781 -3.75 3.710938 -4.023438 3.546875 -4.203125 C 3.390625 -4.378906 3.132812 -4.46875 2.78125 -4.46875 C 2.5 -4.46875 2.25 -4.390625 2.03125 -4.234375 C 1.820312 -4.085938 1.65625 -3.890625 1.53125 -3.640625 L 1.53125 0 L 0.65625 0 L 0.65625 -5.109375 Z M 1.484375 -5.109375 "/></g></g></g><g fill="#ffffff" fill-opacity="1"><g transform="translate(133.13488, 29.63592)"><g><path d="M 3.640625 -1.359375 C 3.640625 -1.585938 3.550781 -1.765625 3.375 -1.890625 C 3.195312 -2.023438 2.882812 -2.140625 2.4375 -2.234375 C 2 -2.335938 1.648438 -2.453125 1.390625 -2.578125 C 1.128906 -2.710938 0.9375 -2.867188 0.8125 -3.046875 C 0.6875 -3.234375 0.625 -3.453125 0.625 -3.703125 C 0.625 -4.117188 0.800781 -4.472656 1.15625 -4.765625 C 1.507812 -5.054688 1.960938 -5.203125 2.515625 -5.203125 C 3.085938 -5.203125 3.554688 -5.050781 3.921875 -4.75 C 4.285156 -4.457031 4.46875 -4.078125 4.46875 -3.609375 L 3.578125 -3.609375 C 3.578125 -3.847656 3.472656 -4.050781 3.265625 -4.21875 C 3.066406 -4.394531 2.816406 -4.484375 2.515625 -4.484375 C 2.191406 -4.484375 1.941406 -4.414062 1.765625 -4.28125 C 1.585938 -4.144531 1.5 -3.960938 1.5 -3.734375 C 1.5 -3.523438 1.582031 -3.363281 1.75 -3.25 C 1.914062 -3.144531 2.21875 -3.046875 2.65625 -2.953125 C 3.09375 -2.859375 3.445312 -2.742188 3.71875 -2.609375 C 3.988281 -2.472656 4.1875 -2.304688 4.3125 -2.109375 C 4.445312 -1.921875 4.515625 -1.691406 4.515625 -1.421875 C 4.515625 -0.960938 4.332031 -0.59375 3.96875 -0.3125 C 3.601562 -0.0390625 3.128906 0.09375 2.546875 0.09375 C 2.128906 0.09375 1.765625 0.0195312 1.453125 -0.125 C 1.140625 -0.269531 0.894531 -0.472656 0.71875 -0.734375 C 0.539062 -0.992188 0.453125 -1.273438 0.453125 -1.578125 L 1.328125 -1.578125 C 1.335938 -1.285156 1.453125 -1.050781 1.671875 -0.875 C 1.890625 -0.707031 2.179688 -0.625 2.546875 -0.625 C 2.867188 -0.625 3.128906 -0.6875 3.328125 -0.8125 C 3.535156 -0.945312 3.640625 -1.128906 3.640625 -1.359375 Z M 3.640625 -1.359375 "/></g></g></g><g fill="#ffffff" fill-opacity="1"><g transform="translate(138.113963, 29.63592)"><g><path d="M 1.84375 -6.34375 L 1.84375 -5.109375 L 2.796875 -5.109375 L 2.796875 -4.4375 L 1.84375 -4.4375 L 1.84375 -1.265625 C 1.84375 -1.054688 1.882812 -0.898438 1.96875 -0.796875 C 2.050781 -0.703125 2.195312 -0.65625 2.40625 -0.65625 C 2.507812 -0.65625 2.648438 -0.671875 2.828125 -0.703125 L 2.828125 0 C 2.597656 0.0625 2.375 0.09375 2.15625 0.09375 C 1.757812 0.09375 1.460938 -0.0195312 1.265625 -0.25 C 1.066406 -0.488281 0.96875 -0.828125 0.96875 -1.265625 L 0.96875 -4.4375 L 0.046875 -4.4375 L 0.046875 -5.109375 L 0.96875 -5.109375 L 0.96875 -6.34375 Z M 1.84375 -6.34375 "/></g></g></g><g fill="#ffffff" fill-opacity="1"><g transform="translate(141.268331, 29.63592)"><g><path d="M 3.8125 0 C 3.757812 -0.101562 3.71875 -0.28125 3.6875 -0.53125 C 3.28125 -0.113281 2.796875 0.09375 2.234375 0.09375 C 1.734375 0.09375 1.320312 -0.046875 1 -0.328125 C 0.675781 -0.617188 0.515625 -0.984375 0.515625 -1.421875 C 0.515625 -1.953125 0.71875 -2.363281 1.125 -2.65625 C 1.53125 -2.945312 2.097656 -3.09375 2.828125 -3.09375 L 3.671875 -3.09375 L 3.671875 -3.5 C 3.671875 -3.800781 3.578125 -4.039062 3.390625 -4.21875 C 3.210938 -4.40625 2.945312 -4.5 2.59375 -4.5 C 2.28125 -4.5 2.019531 -4.421875 1.8125 -4.265625 C 1.601562 -4.109375 1.5 -3.914062 1.5 -3.6875 L 0.625 -3.6875 C 0.625 -3.945312 0.710938 -4.191406 0.890625 -4.421875 C 1.066406 -4.660156 1.3125 -4.847656 1.625 -4.984375 C 1.9375 -5.128906 2.28125 -5.203125 2.65625 -5.203125 C 3.238281 -5.203125 3.695312 -5.054688 4.03125 -4.765625 C 4.363281 -4.472656 4.535156 -4.066406 4.546875 -3.546875 L 4.546875 -1.1875 C 4.546875 -0.71875 4.609375 -0.347656 4.734375 -0.078125 L 4.734375 0 Z M 2.359375 -0.671875 C 2.640625 -0.671875 2.898438 -0.738281 3.140625 -0.875 C 3.390625 -1.019531 3.566406 -1.207031 3.671875 -1.4375 L 3.671875 -2.484375 L 3 -2.484375 C 1.925781 -2.484375 1.390625 -2.171875 1.390625 -1.546875 C 1.390625 -1.265625 1.476562 -1.046875 1.65625 -0.890625 C 1.84375 -0.742188 2.078125 -0.671875 2.359375 -0.671875 Z M 2.359375 -0.671875 "/></g></g></g><g fill="#ffffff" fill-opacity="1"><g transform="translate(146.520887, 29.63592)"><g><path d="M 1.484375 -5.109375 L 1.515625 -4.46875 C 1.898438 -4.957031 2.410156 -5.203125 3.046875 -5.203125 C 4.128906 -5.203125 4.675781 -4.59375 4.6875 -3.375 L 4.6875 0 L 3.8125 0 L 3.8125 -3.375 C 3.800781 -3.75 3.710938 -4.023438 3.546875 -4.203125 C 3.390625 -4.378906 3.132812 -4.46875 2.78125 -4.46875 C 2.5 -4.46875 2.25 -4.390625 2.03125 -4.234375 C 1.820312 -4.085938 1.65625 -3.890625 1.53125 -3.640625 L 1.53125 0 L 0.65625 0 L 0.65625 -5.109375 Z M 1.484375 -5.109375 "/></g></g></g><g fill="#ffffff" fill-opacity="1"><g transform="translate(151.848883, 29.63592)"><g><path d="M 1.84375 -6.34375 L 1.84375 -5.109375 L 2.796875 -5.109375 L 2.796875 -4.4375 L 1.84375 -4.4375 L 1.84375 -1.265625 C 1.84375 -1.054688 1.882812 -0.898438 1.96875 -0.796875 C 2.050781 -0.703125 2.195312 -0.65625 2.40625 -0.65625 C 2.507812 -0.65625 2.648438 -0.671875 2.828125 -0.703125 L 2.828125 0 C 2.597656 0.0625 2.375 0.09375 2.15625 0.09375 C 1.757812 0.09375 1.460938 -0.0195312 1.265625 -0.25 C 1.066406 -0.488281 0.96875 -0.828125 0.96875 -1.265625 L 0.96875 -4.4375 L 0.046875 -4.4375 L 0.046875 -5.109375 L 0.96875 -5.109375 L 0.96875 -6.34375 Z M 1.84375 -6.34375 "/></g></g></g><g fill="#ffffff" fill-opacity="1"><g transform="translate(155.003251, 29.63592)"><g><path d="M 1.609375 0 L 0.734375 0 L 0.734375 -7.25 L 1.609375 -7.25 Z M 1.609375 0 "/></g></g></g><g fill="#ffffff" fill-opacity="1"><g transform="translate(157.346632, 29.63592)"><g><path d="M 2.328125 -1.28125 L 3.515625 -5.109375 L 4.453125 -5.109375 L 2.40625 0.78125 C 2.082031 1.632812 1.578125 2.0625 0.890625 2.0625 L 0.71875 2.046875 L 0.390625 1.984375 L 0.390625 1.28125 L 0.640625 1.296875 C 0.929688 1.296875 1.160156 1.234375 1.328125 1.109375 C 1.492188 0.992188 1.628906 0.78125 1.734375 0.46875 L 1.921875 -0.0625 L 0.109375 -5.109375 L 1.0625 -5.109375 Z M 2.328125 -1.28125 "/></g></g></g></svg>